<?xml version="1.0" encoding="UTF-8" standalone="no"?>
<!-- Created with Inkscape (http://www.inkscape.org/) -->

<svg
   width="77.380463mm"
   height="13.255914mm"
   viewBox="0 0 77.380463 13.255914"
   version="1.1"
   id="svg1"
   xmlns="http://www.w3.org/2000/svg"
   xmlns:svg="http://www.w3.org/2000/svg">
  <defs
     id="defs1" />
  <g
     id="layer1"
     transform="translate(-101.09011,-38.687776)">
    <path
       id="rect1-8"
       transform="translate(154.90226,24.738459)"
       d="M 23.352825,14.164828 H -53.596647 M 23.352825,26.98974 H -53.596647 M 23.352825,14.164828 V 26.98974 M 10.527913,14.164828 V 26.98974 M -2.296999,14.164828 V 26.98974 M -15.121911,14.164828 V 26.98974 M -27.946823,14.164828 V 26.98974 M -40.771735,14.164828 V 26.98974 M -53.596647,14.164828 V 26.98974"
       style="fill:none;stroke:#000000;stroke-width:0.431001" />
    <path
       id="path1-31"
       style="stroke:#000000;stroke-width:0.4"
       d="m 121.18423,45.315742 a 0.5742498,0.5742498 0 0 1 -0.57425,0.57425 0.5742498,0.5742498 0 0 1 -0.57425,-0.57425 0.5742498,0.5742498 0 0 1 0.57425,-0.574249 0.5742498,0.5742498 0 0 1 0.57425,0.574249 z" />
    <path
       id="path1-8-0"
       style="stroke:#000000;stroke-width:0.4"
       d="m 108.19695,45.315742 a 0.5742498,0.5742498 0 0 1 -0.57425,0.57425 0.5742498,0.5742498 0 0 1 -0.57425,-0.57425 0.5742498,0.5742498 0 0 1 0.57425,-0.574249 0.5742498,0.5742498 0 0 1 0.57425,0.574249 z" />
    <path
       id="path1-83-0"
       style="stroke:#000000;stroke-width:0.4"
       d="m 133.9162,45.315742 a 0.5742498,0.5742498 0 0 1 -0.57425,0.57425 0.5742498,0.5742498 0 0 1 -0.57425,-0.57425 0.5742498,0.5742498 0 0 1 0.57425,-0.574249 0.5742498,0.5742498 0 0 1 0.57425,0.574249 z" />
    <path
       id="path1-2-8"
       style="stroke:#000000;stroke-width:0.4"
       d="m 146.71892,45.315742 a 0.5742498,0.5742498 0 0 1 -0.57425,0.57425 0.5742498,0.5742498 0 0 1 -0.57425,-0.57425 0.5742498,0.5742498 0 0 1 0.57425,-0.574249 0.5742498,0.5742498 0 0 1 0.57425,0.574249 z" />
    <path
       id="path1-7-0"
       style="stroke:#000000;stroke-width:0.4"
       d="m 159.60318,45.315742 a 0.5742498,0.5742498 0 0 1 -0.57425,0.57425 0.5742498,0.5742498 0 0 1 -0.57425,-0.57425 0.5742498,0.5742498 0 0 1 0.57425,-0.574249 0.5742498,0.5742498 0 0 1 0.57425,0.574249 z" />
    <path
       id="path1-3-4"
       style="stroke:#000000;stroke-width:0.4"
       d="m 172.40588,45.315742 a 0.5742498,0.5742498 0 0 1 -0.57425,0.57425 0.5742498,0.5742498 0 0 1 -0.57425,-0.57425 0.5742498,0.5742498 0 0 1 0.57425,-0.574249 0.5742498,0.5742498 0 0 1 0.57425,0.574249 z" />
    <path
       d="m 103.11156,40.202625 0.68213,-0.332796 h 0.0682 v 2.366784 q 0,0.235645 0.0186,0.293523 0.0207,0.05788 0.0827,0.08888 0.062,0.03101 0.25218,0.03514 v 0.07648 h -1.0542 v -0.07648 q 0.19844,-0.0041 0.25631,-0.03307 0.0579,-0.03101 0.0806,-0.08062 0.0227,-0.05168 0.0227,-0.303858 V 40.72352 q 0,-0.305925 -0.0207,-0.392742 -0.0145,-0.06615 -0.0537,-0.09715 -0.0372,-0.03101 -0.091,-0.03101 -0.0765,0 -0.21291,0.06408 z"
       id="text2-76"
       style="font-size:4.23334px;font-family:'Times New Roman';-inkscape-font-specification:'Times New Roman, ';stroke-width:0.430999"
       aria-label="1" />
    <path
       d="m 117.54372,42.191138 -0.19637,0.539502 h -1.65365 v -0.07648 q 0.72968,-0.665593 1.02733,-1.087274 0.29766,-0.42168 0.29766,-0.771013 0,-0.266651 -0.1633,-0.438217 -0.1633,-0.171566 -0.39067,-0.171566 -0.20671,0 -0.37207,0.121957 -0.1633,0.119889 -0.24185,0.353467 h -0.0765 q 0.0517,-0.382406 0.26458,-0.587045 0.21498,-0.204639 0.53537,-0.204639 0.34107,0 0.56844,0.219108 0.22945,0.219109 0.22945,0.516765 0,0.212908 -0.0992,0.425815 -0.15296,0.334864 -0.4961,0.709001 -0.5147,0.562241 -0.64285,0.677996 h 0.73174 q 0.22324,0 0.31212,-0.01654 0.0909,-0.01654 0.1633,-0.06615 0.0724,-0.05168 0.12609,-0.144694 z"
       id="text2-3-6"
       style="font-size:4.23334px;font-family:'Times New Roman';-inkscape-font-specification:'Times New Roman, ';stroke-width:0.430999"
       aria-label="2" />
    <path
       d="m 127.99778,40.461008 q 0.11989,-0.283187 0.30179,-0.43615 0.18397,-0.155029 0.45682,-0.155029 0.33693,0 0.51677,0.219108 0.13642,0.163298 0.13642,0.349333 0,0.305925 -0.38447,0.632521 0.25838,0.101286 0.39067,0.289388 0.1323,0.188103 0.1323,0.442351 0,0.363803 -0.23151,0.630454 -0.3018,0.347266 -0.87437,0.347266 -0.28319,0 -0.38654,-0.07028 -0.10129,-0.07028 -0.10129,-0.150896 0,-0.05994 0.0475,-0.10542 0.0496,-0.04548 0.11783,-0.04548 0.0517,0 0.10542,0.01654 0.0351,0.01034 0.15916,0.07648 0.12402,0.06408 0.17157,0.07648 0.0765,0.02274 0.16329,0.02274 0.21084,0 0.36587,-0.163298 0.1571,-0.163298 0.1571,-0.38654 0,-0.163298 -0.0724,-0.318328 -0.0537,-0.115755 -0.11782,-0.1757 -0.0889,-0.08268 -0.24391,-0.148828 -0.15503,-0.06821 -0.31626,-0.06821 h -0.0661 V 41.2775 q 0.1633,-0.02067 0.3266,-0.117823 0.16536,-0.09715 0.23978,-0.233577 0.0744,-0.136426 0.0744,-0.299724 0,-0.212907 -0.13436,-0.343132 -0.13229,-0.132292 -0.33073,-0.132292 -0.32039,0 -0.53537,0.343132 z"
       id="text2-7-4"
       style="font-size:4.23334px;font-family:'Times New Roman';-inkscape-font-specification:'Times New Roman, ';stroke-width:0.430999"
       aria-label="3" />
    <path
       d="m 143.18692,41.69711 v 0.293523 h -0.37621 v 0.740007 h -0.34106 v -0.740007 h -1.18649 v -0.264584 l 1.30018,-1.85622 h 0.22737 v 1.827281 z m -0.71727,0 v -1.391131 l -0.98392,1.391131 z"
       id="text2-7-1-6"
       style="font-size:4.23334px;font-family:'Times New Roman';-inkscape-font-specification:'Times New Roman, ';stroke-width:0.430999"
       aria-label="4" />
    <path
       d="m 155.93887,39.927706 -0.16123,0.351401 h -0.84336 l -0.18397,0.376205 q 0.54778,0.08061 0.86817,0.407211 0.27492,0.28112 0.27492,0.661459 0,0.221175 -0.091,0.409278 -0.0889,0.188102 -0.22531,0.320394 -0.13643,0.132292 -0.30386,0.212908 -0.23771,0.113688 -0.48783,0.113688 -0.25218,0 -0.36793,-0.08475 -0.11369,-0.08682 -0.11369,-0.190169 0,-0.05788 0.0475,-0.101286 0.0475,-0.04548 0.11989,-0.04548 0.0537,0 0.093,0.01654 0.0413,0.01654 0.13849,0.08475 0.15503,0.107488 0.3142,0.107488 0.24184,0 0.42374,-0.181902 0.18397,-0.183968 0.18397,-0.446485 0,-0.254248 -0.1633,-0.473357 -0.16329,-0.221175 -0.45062,-0.341065 -0.22531,-0.09302 -0.61391,-0.107487 l 0.53743,-1.089341 z"
       id="text2-7-8-2"
       style="font-size:4.23334px;font-family:'Times New Roman';-inkscape-font-specification:'Times New Roman, ';stroke-width:0.430999"
       aria-label="5" />
    <path
       d="m 168.88308,39.869829 v 0.07648 q -0.27285,0.02687 -0.44648,0.109554 -0.17157,0.08062 -0.34107,0.248047 -0.16743,0.167432 -0.27905,0.374138 -0.10956,0.204639 -0.18397,0.487827 0.29766,-0.204639 0.59738,-0.204639 0.28732,0 0.49816,0.23151 0.21084,0.231511 0.21084,0.595314 0,0.3514 -0.21291,0.640789 -0.25631,0.3514 -0.67799,0.3514 -0.28732,0 -0.48783,-0.19017 -0.39274,-0.370004 -0.39274,-0.959116 0,-0.376205 0.1509,-0.715203 0.15089,-0.338998 0.42994,-0.601514 0.28112,-0.262517 0.53744,-0.353468 0.25632,-0.09095 0.47749,-0.09095 z m -1.28571,1.446942 q -0.0372,0.279053 -0.0372,0.450619 0,0.198438 0.0724,0.432016 0.0744,0.231511 0.21911,0.367937 0.10542,0.09715 0.25631,0.09715 0.17984,0 0.3204,-0.169498 0.14262,-0.169499 0.14262,-0.483693 0,-0.353467 -0.14056,-0.61185 -0.14056,-0.258382 -0.39894,-0.258382 -0.0786,0 -0.1695,0.03307 -0.0889,0.03307 -0.26458,0.142627 z"
       id="text2-7-0-4"
       style="font-size:4.23334px;font-family:'Times New Roman';-inkscape-font-specification:'Times New Roman, ';stroke-width:0.430999"
       aria-label="6" />
  </g>
</svg>
