<?xml version="1.0" encoding="UTF-8" standalone="no"?>
<!-- Created with Inkscape (http://www.inkscape.org/) -->

<svg
   width="162.27782mm"
   height="43.945511mm"
   viewBox="0 0 162.27782 43.945511"
   version="1.1"
   id="svg1"
   inkscape:version="1.2.1 (9c6d41e410, 2022-07-14)"
   sodipodi:docname="week 2.1 mod.svg"
   xmlns:inkscape="http://www.inkscape.org/namespaces/inkscape"
   xmlns:sodipodi="http://sodipodi.sourceforge.net/DTD/sodipodi-0.dtd"
   xmlns="http://www.w3.org/2000/svg"
   xmlns:svg="http://www.w3.org/2000/svg"
   xmlns:ns7="http://www.iki.fi/pav/software/textext/">
  <sodipodi:namedview
     id="namedview1"
     pagecolor="#ffffff"
     bordercolor="#000000"
     borderopacity="0.25"
     inkscape:showpageshadow="2"
     inkscape:pageopacity="0.0"
     inkscape:pagecheckerboard="0"
     inkscape:deskcolor="#d1d1d1"
     inkscape:document-units="mm"
     inkscape:zoom="2.8449451"
     inkscape:cx="348.68862"
     inkscape:cy="1427.7955"
     inkscape:window-width="1920"
     inkscape:window-height="1057"
     inkscape:window-x="-8"
     inkscape:window-y="-8"
     inkscape:window-maximized="1"
     inkscape:current-layer="layer1"
     showgrid="false">
    <inkscape:page
       x="-1.327334e-07"
       y="-4.7055596e-06"
       width="162.27782"
       height="43.945511"
       id="page1"
       margin="0"
       bleed="0" />
  </sodipodi:namedview>
  <defs
     id="defs1" />
  <g
     inkscape:label="Layer 1"
     inkscape:groupmode="layer"
     id="layer1"
     transform="translate(-7.4469272,-237.19024)">
    <path
       id="rect12"
       style="fill:none;stroke:#000000;stroke-width:0.51381;stroke-linecap:round;stroke-linejoin:round"
       transform="matrix(1,0,-0.52606145,0.85044656,0,0)"
       d="m 173.54974,295.33551 h 60.57119 v 19.86063 h -60.57119 z"
       inkscape:export-filename="../MUDE_TA/book-4/book/fvm/figs/fdm_vs_fvm.svg"
       inkscape:export-xdpi="96"
       inkscape:export-ydpi="96" />
    <path
       style="fill:none;stroke:#000000;stroke-width:0.4;stroke-linecap:round;stroke-linejoin:round;stroke-dasharray:none;stroke-dashoffset:0;stroke-opacity:1"
       d="m 8.8297048,265.83248 c 0,0 0.6386585,0.0549 1.0466221,0.77967 0.4079641,0.72472 0.2666401,1.29966 0.2666401,1.29966"
       id="path12"
       sodipodi:nodetypes="czc" />
    <g
       transform="matrix(0.20064737,0,0,0.20064737,10.363058,265.1798)"
       ns7:version="1.10.2"
       ns7:texconverter="pdflatex"
       ns7:pdfconverter="inkscape"
       ns7:text="$60 ^{\\circ} $"
       ns7:preamble="/Users/monadevos/Library/Application Support/org.inkscape.Inkscape/config/inkscape/extensions/textext/default_packages.tex"
       ns7:scale="1.0"
       ns7:alignment="middle center"
       ns7:stroke-to-path="0"
       ns7:inkscapeversion="1.3.2"
       id="g4471"
       ns7:jacobian_sqrt="0.352778">
      <defs
         id="id-5472c005-4c77-4e7a-aad8-cefa00c1dad6" />
      <g
         fill="#000000"
         fill-opacity="1"
         id="id-63d53c6e-2292-4bb6-b89d-e54950aadbb5"
         transform="translate(-149.134,-127.915)">
        <g
           transform="translate(148.712,134.765)"
           id="g2579">
          <path
             d="m 1.3125,-3.265625 v -0.25 c 0,-2.515625 1.234375,-2.875 1.75,-2.875 0.234375,0 0.65625,0.0625 0.875,0.40625 -0.15625,0 -0.546875,0 -0.546875,0.4375 0,0.3125 0.234375,0.46875 0.453125,0.46875 0.15625,0 0.46875,-0.09375 0.46875,-0.484375 0,-0.59375 -0.4375,-1.078125 -1.265625,-1.078125 -1.28125,0 -2.625,1.28125 -2.625,3.484375 0,2.671875 1.15625,3.375 2.078125,3.375 1.109375,0 2.0625,-0.9375 2.0625,-2.25 0,-1.265625 -0.890625,-2.21875 -2,-2.21875 -0.671875,0 -1.046875,0.5 -1.25,0.984375 z M 2.5,-0.0625 c -0.625,0 -0.921875,-0.59375 -0.984375,-0.75 -0.1875,-0.46875 -0.1875,-1.265625 -0.1875,-1.4375 0,-0.78125 0.328125,-1.78125 1.21875,-1.78125 0.171875,0 0.625,0 0.9375,0.625 0.171875,0.359375 0.171875,0.875 0.171875,1.359375 0,0.484375 0,0.984375 -0.171875,1.34375 C 3.1875,-0.109375 2.734375,-0.0625 2.5,-0.0625 Z m 0,0"
             id="id-889d853d-51f9-49a6-828a-5a1a093a8f59" />
        </g>
        <g
           transform="translate(153.693,134.765)"
           id="g1653">
          <path
             d="m 4.578125,-3.1875 c 0,-0.796875 -0.046875,-1.59375 -0.390625,-2.328125 -0.453125,-0.96875 -1.28125,-1.125 -1.6875,-1.125 -0.609375,0 -1.328125,0.265625 -1.75,1.1875 -0.3125,0.6875 -0.359375,1.46875 -0.359375,2.265625 0,0.75 0.03125,1.640625 0.453125,2.40625 0.421875,0.796875 1.15625,1 1.640625,1 0.53125,0 1.296875,-0.203125 1.734375,-1.15625 0.3125,-0.6875 0.359375,-1.46875 0.359375,-2.25 z M 2.484375,0 C 2.09375,0 1.5,-0.25 1.328125,-1.203125 1.21875,-1.796875 1.21875,-2.71875 1.21875,-3.3125 c 0,-0.640625 0,-1.296875 0.078125,-1.828125 0.1875,-1.1875 0.9375,-1.28125 1.1875,-1.28125 0.328125,0 0.984375,0.1875 1.171875,1.171875 0.109375,0.5625 0.109375,1.3125 0.109375,1.9375 0,0.75 0,1.421875 -0.109375,2.0625 C 3.5,-0.296875 2.9375,0 2.484375,0 Z m 0,0"
             id="id-2528bc43-135a-4c73-bd26-d785c4075754" />
        </g>
      </g>
      <g
         fill="#000000"
         fill-opacity="1"
         id="id-759b2cb5-918c-4954-883e-9ed3d8f376d2"
         transform="translate(-149.134,-127.915)">
        <g
           transform="translate(158.675,131.149)"
           id="g214">
          <path
             d="m 3.53125,-1.734375 c 0,-0.84375 -0.671875,-1.5 -1.5,-1.5 -0.828125,0 -1.5,0.671875 -1.5,1.484375 0,0.84375 0.6875,1.5 1.5,1.5 0.84375,0 1.5,-0.671875 1.5,-1.484375 z m -1.5,1.140625 C 1.375,-0.59375 0.875,-1.125 0.875,-1.734375 c 0,-0.65625 0.515625,-1.171875 1.15625,-1.171875 0.65625,0 1.15625,0.53125 1.15625,1.15625 0,0.65625 -0.515625,1.15625 -1.15625,1.15625 z m 0,0"
             id="id-e462812f-0e0b-4a4e-969a-61cafb3a3ca8" />
        </g>
      </g>
    </g>
    <path
       id="path13"
       class="UnoptimicedTransforms"
       transform="matrix(0.96528747,0,0,0.69894139,27.67433,69.560374)"
       d="m 72.942805,240.23296 c 0,0.066 -0.05354,0.11957 -0.119578,0.11957 -0.06604,0 -0.119578,-0.0535 -0.119578,-0.11957 0,-0.066 0.05354,-0.11958 0.119578,-0.11958 0.06604,0 0.119578,0.0535 0.119578,0.11958 z m 6.05999,0 c 0,0.066 -0.05354,0.11957 -0.119578,0.11957 -0.06604,0 -0.119578,-0.0535 -0.119578,-0.11957 0,-0.066 0.05354,-0.11958 0.119578,-0.11958 0.06604,0 0.119578,0.0535 0.119578,0.11958 z m 6.05999,0 c 0,0.066 -0.05354,0.11957 -0.119578,0.11957 -0.06604,0 -0.119578,-0.0535 -0.119578,-0.11957 0,-0.066 0.05354,-0.11958 0.119578,-0.11958 0.06604,0 0.119578,0.0535 0.119578,0.11958 z m 6.059991,0 c 0,0.066 -0.05354,0.11957 -0.119579,0.11957 -0.06604,0 -0.119578,-0.0535 -0.119578,-0.11957 0,-0.066 0.05354,-0.11958 0.119578,-0.11958 0.06604,0 0.119579,0.0535 0.119579,0.11958 z m 6.05999,0 c 0,0.066 -0.05354,0.11957 -0.119579,0.11957 -0.06604,0 -0.119578,-0.0535 -0.119578,-0.11957 0,-0.066 0.05354,-0.11958 0.119578,-0.11958 0.06604,0 0.119579,0.0535 0.119579,0.11958 z m 6.059994,0 c 0,0.066 -0.0535,0.11957 -0.11958,0.11957 -0.066,0 -0.11958,-0.0535 -0.11958,-0.11957 0,-0.066 0.0535,-0.11958 0.11958,-0.11958 0.066,0 0.11958,0.0535 0.11958,0.11958 z m 6.05999,0 c 0,0.066 -0.0535,0.11957 -0.11958,0.11957 -0.066,0 -0.11958,-0.0535 -0.11958,-0.11957 0,-0.066 0.0535,-0.11958 0.11958,-0.11958 0.066,0 0.11958,0.0535 0.11958,0.11958 z m 6.05999,0 c 0,0.066 -0.0535,0.11957 -0.11958,0.11957 -0.066,0 -0.11958,-0.0535 -0.11958,-0.11957 0,-0.066 0.0535,-0.11958 0.11958,-0.11958 0.066,0 0.11958,0.0535 0.11958,0.11958 z m 6.05999,0 c 0,0.066 -0.0535,0.11957 -0.11958,0.11957 -0.066,0 -0.11958,-0.0535 -0.11958,-0.11957 0,-0.066 0.0535,-0.11958 0.11958,-0.11958 0.066,0 0.11958,0.0535 0.11958,0.11958 z m 6.05999,0 c 0,0.066 -0.0535,0.11957 -0.11958,0.11957 -0.066,0 -0.11958,-0.0535 -0.11958,-0.11957 0,-0.066 0.0535,-0.11958 0.11958,-0.11958 0.066,0 0.11958,0.0535 0.11958,0.11958 z m 6.05999,0 c 0,0.066 -0.0535,0.11957 -0.11958,0.11957 -0.066,0 -0.11958,-0.0535 -0.11958,-0.11957 0,-0.066 0.0535,-0.11958 0.11958,-0.11958 0.066,0 0.11958,0.0535 0.11958,0.11958 z m 6.05999,0 c 0,0.066 -0.0535,0.11957 -0.11958,0.11957 -0.066,0 -0.11958,-0.0535 -0.11958,-0.11957 0,-0.066 0.0535,-0.11958 0.11958,-0.11958 0.066,0 0.11958,0.0535 0.11958,0.11958 z m 6.05999,0 c 0,0.066 -0.0535,0.11957 -0.11958,0.11957 -0.066,0 -0.11958,-0.0535 -0.11958,-0.11957 0,-0.066 0.0535,-0.11958 0.11958,-0.11958 0.066,0 0.11958,0.0535 0.11958,0.11958 z m -72.719885,6.05999 c 0,0.066 -0.05354,0.11957 -0.119578,0.11957 -0.06604,0 -0.119578,-0.0535 -0.119578,-0.11957 0,-0.066 0.05354,-0.11958 0.119578,-0.11958 0.06604,0 0.119578,0.0535 0.119578,0.11958 z m 6.05999,0 c 0,0.066 -0.05354,0.11957 -0.119578,0.11957 -0.06604,0 -0.119578,-0.0535 -0.119578,-0.11957 0,-0.066 0.05354,-0.11958 0.119578,-0.11958 0.06604,0 0.119578,0.0535 0.119578,0.11958 z m 6.05999,0 c 0,0.066 -0.05354,0.11957 -0.119578,0.11957 -0.06604,0 -0.119578,-0.0535 -0.119578,-0.11957 0,-0.066 0.05354,-0.11958 0.119578,-0.11958 0.06604,0 0.119578,0.0535 0.119578,0.11958 z m 6.059991,0 c 0,0.066 -0.05354,0.11957 -0.119579,0.11957 -0.06604,0 -0.119578,-0.0535 -0.119578,-0.11957 0,-0.066 0.05354,-0.11958 0.119578,-0.11958 0.06604,0 0.119579,0.0535 0.119579,0.11958 z m 6.05999,0 c 0,0.066 -0.05354,0.11957 -0.119579,0.11957 -0.06604,0 -0.119578,-0.0535 -0.119578,-0.11957 0,-0.066 0.05354,-0.11958 0.119578,-0.11958 0.06604,0 0.119579,0.0535 0.119579,0.11958 z m 6.059994,0 c 0,0.066 -0.0535,0.11957 -0.11958,0.11957 -0.066,0 -0.11958,-0.0535 -0.11958,-0.11957 0,-0.066 0.0535,-0.11958 0.11958,-0.11958 0.066,0 0.11958,0.0535 0.11958,0.11958 z m 6.05999,0 c 0,0.066 -0.0535,0.11957 -0.11958,0.11957 -0.066,0 -0.11958,-0.0535 -0.11958,-0.11957 0,-0.066 0.0535,-0.11958 0.11958,-0.11958 0.066,0 0.11958,0.0535 0.11958,0.11958 z m 6.05999,0 c 0,0.066 -0.0535,0.11957 -0.11958,0.11957 -0.066,0 -0.11958,-0.0535 -0.11958,-0.11957 0,-0.066 0.0535,-0.11958 0.11958,-0.11958 0.066,0 0.11958,0.0535 0.11958,0.11958 z m 6.05999,0 c 0,0.066 -0.0535,0.11957 -0.11958,0.11957 -0.066,0 -0.11958,-0.0535 -0.11958,-0.11957 0,-0.066 0.0535,-0.11958 0.11958,-0.11958 0.066,0 0.11958,0.0535 0.11958,0.11958 z m 6.05999,0 c 0,0.066 -0.0535,0.11957 -0.11958,0.11957 -0.066,0 -0.11958,-0.0535 -0.11958,-0.11957 0,-0.066 0.0535,-0.11958 0.11958,-0.11958 0.066,0 0.11958,0.0535 0.11958,0.11958 z m 6.05999,0 c 0,0.066 -0.0535,0.11957 -0.11958,0.11957 -0.066,0 -0.11958,-0.0535 -0.11958,-0.11957 0,-0.066 0.0535,-0.11958 0.11958,-0.11958 0.066,0 0.11958,0.0535 0.11958,0.11958 z m 6.05999,0 c 0,0.066 -0.0535,0.11957 -0.11958,0.11957 -0.066,0 -0.11958,-0.0535 -0.11958,-0.11957 0,-0.066 0.0535,-0.11958 0.11958,-0.11958 0.066,0 0.11958,0.0535 0.11958,0.11958 z m 6.05999,0 c 0,0.066 -0.0535,0.11957 -0.11958,0.11957 -0.066,0 -0.11958,-0.0535 -0.11958,-0.11957 0,-0.066 0.0535,-0.11958 0.11958,-0.11958 0.066,0 0.11958,0.0535 0.11958,0.11958 z m -72.719885,6.05999 c 0,0.066 -0.05354,0.11957 -0.119578,0.11957 -0.06604,0 -0.119578,-0.0535 -0.119578,-0.11957 0,-0.066 0.05354,-0.11958 0.119578,-0.11958 0.06604,0 0.119578,0.0535 0.119578,0.11958 z m 6.05999,0 c 0,0.066 -0.05354,0.11957 -0.119578,0.11957 -0.06604,0 -0.119578,-0.0535 -0.119578,-0.11957 0,-0.066 0.05354,-0.11958 0.119578,-0.11958 0.06604,0 0.119578,0.0535 0.119578,0.11958 z m 6.05999,0 c 0,0.066 -0.05354,0.11957 -0.119578,0.11957 -0.06604,0 -0.119578,-0.0535 -0.119578,-0.11957 0,-0.066 0.05354,-0.11958 0.119578,-0.11958 0.06604,0 0.119578,0.0535 0.119578,0.11958 z m 6.059991,0 c 0,0.066 -0.05354,0.11957 -0.119579,0.11957 -0.06604,0 -0.119578,-0.0535 -0.119578,-0.11957 0,-0.066 0.05354,-0.11958 0.119578,-0.11958 0.06604,0 0.119579,0.0535 0.119579,0.11958 z m 6.05999,0 c 0,0.066 -0.05354,0.11957 -0.119579,0.11957 -0.06604,0 -0.119578,-0.0535 -0.119578,-0.11957 0,-0.066 0.05354,-0.11958 0.119578,-0.11958 0.06604,0 0.119579,0.0535 0.119579,0.11958 z m 6.059994,0 c 0,0.066 -0.0535,0.11957 -0.11958,0.11957 -0.066,0 -0.11958,-0.0535 -0.11958,-0.11957 0,-0.066 0.0535,-0.11958 0.11958,-0.11958 0.066,0 0.11958,0.0535 0.11958,0.11958 z m 6.05999,0 c 0,0.066 -0.0535,0.11957 -0.11958,0.11957 -0.066,0 -0.11958,-0.0535 -0.11958,-0.11957 0,-0.066 0.0535,-0.11958 0.11958,-0.11958 0.066,0 0.11958,0.0535 0.11958,0.11958 z m 6.05999,0 c 0,0.066 -0.0535,0.11957 -0.11958,0.11957 -0.066,0 -0.11958,-0.0535 -0.11958,-0.11957 0,-0.066 0.0535,-0.11958 0.11958,-0.11958 0.066,0 0.11958,0.0535 0.11958,0.11958 z m 6.05999,0 c 0,0.066 -0.0535,0.11957 -0.11958,0.11957 -0.066,0 -0.11958,-0.0535 -0.11958,-0.11957 0,-0.066 0.0535,-0.11958 0.11958,-0.11958 0.066,0 0.11958,0.0535 0.11958,0.11958 z m 6.05999,0 c 0,0.066 -0.0535,0.11957 -0.11958,0.11957 -0.066,0 -0.11958,-0.0535 -0.11958,-0.11957 0,-0.066 0.0535,-0.11958 0.11958,-0.11958 0.066,0 0.11958,0.0535 0.11958,0.11958 z m 6.05999,0 c 0,0.066 -0.0535,0.11957 -0.11958,0.11957 -0.066,0 -0.11958,-0.0535 -0.11958,-0.11957 0,-0.066 0.0535,-0.11958 0.11958,-0.11958 0.066,0 0.11958,0.0535 0.11958,0.11958 z m 6.05999,0 c 0,0.066 -0.0535,0.11957 -0.11958,0.11957 -0.066,0 -0.11958,-0.0535 -0.11958,-0.11957 0,-0.066 0.0535,-0.11958 0.11958,-0.11958 0.066,0 0.11958,0.0535 0.11958,0.11958 z m 6.05999,0 c 0,0.066 -0.0535,0.11957 -0.11958,0.11957 -0.066,0 -0.11958,-0.0535 -0.11958,-0.11957 0,-0.066 0.0535,-0.11958 0.11958,-0.11958 0.066,0 0.11958,0.0535 0.11958,0.11958 z m -72.719885,6.05999 c 0,0.066 -0.05354,0.11957 -0.119578,0.11957 -0.06604,0 -0.119578,-0.0535 -0.119578,-0.11957 0,-0.0661 0.05354,-0.11958 0.119578,-0.11958 0.06604,0 0.119578,0.0535 0.119578,0.11958 z m 6.05999,0 c 0,0.066 -0.05354,0.11957 -0.119578,0.11957 -0.06604,0 -0.119578,-0.0535 -0.119578,-0.11957 0,-0.0661 0.05354,-0.11958 0.119578,-0.11958 0.06604,0 0.119578,0.0535 0.119578,0.11958 z m 6.05999,0 c 0,0.066 -0.05354,0.11957 -0.119578,0.11957 -0.06604,0 -0.119578,-0.0535 -0.119578,-0.11957 0,-0.0661 0.05354,-0.11958 0.119578,-0.11958 0.06604,0 0.119578,0.0535 0.119578,0.11958 z m 6.059991,0 c 0,0.066 -0.05354,0.11957 -0.119579,0.11957 -0.06604,0 -0.119578,-0.0535 -0.119578,-0.11957 0,-0.0661 0.05354,-0.11958 0.119578,-0.11958 0.06604,0 0.119579,0.0535 0.119579,0.11958 z m 6.05999,0 c 0,0.066 -0.05354,0.11957 -0.119579,0.11957 -0.06604,0 -0.119578,-0.0535 -0.119578,-0.11957 0,-0.0661 0.05354,-0.11958 0.119578,-0.11958 0.06604,0 0.119579,0.0535 0.119579,0.11958 z m 6.059994,0 c 0,0.066 -0.0535,0.11957 -0.11958,0.11957 -0.066,0 -0.11958,-0.0535 -0.11958,-0.11957 0,-0.0661 0.0535,-0.11958 0.11958,-0.11958 0.066,0 0.11958,0.0535 0.11958,0.11958 z m 6.05999,0 c 0,0.066 -0.0535,0.11957 -0.11958,0.11957 -0.066,0 -0.11958,-0.0535 -0.11958,-0.11957 0,-0.0661 0.0535,-0.11958 0.11958,-0.11958 0.066,0 0.11958,0.0535 0.11958,0.11958 z m 6.05999,0 c 0,0.066 -0.0535,0.11957 -0.11958,0.11957 -0.066,0 -0.11958,-0.0535 -0.11958,-0.11957 0,-0.0661 0.0535,-0.11958 0.11958,-0.11958 0.066,0 0.11958,0.0535 0.11958,0.11958 z m 6.05999,0 c 0,0.066 -0.0535,0.11957 -0.11958,0.11957 -0.066,0 -0.11958,-0.0535 -0.11958,-0.11957 0,-0.0661 0.0535,-0.11958 0.11958,-0.11958 0.066,0 0.11958,0.0535 0.11958,0.11958 z m 6.05999,0 c 0,0.066 -0.0535,0.11957 -0.11958,0.11957 -0.066,0 -0.11958,-0.0535 -0.11958,-0.11957 0,-0.0661 0.0535,-0.11958 0.11958,-0.11958 0.066,0 0.11958,0.0535 0.11958,0.11958 z m 6.05999,0 c 0,0.066 -0.0535,0.11957 -0.11958,0.11957 -0.066,0 -0.11958,-0.0535 -0.11958,-0.11957 0,-0.0661 0.0535,-0.11958 0.11958,-0.11958 0.066,0 0.11958,0.0535 0.11958,0.11958 z m 6.05999,0 c 0,0.066 -0.0535,0.11957 -0.11958,0.11957 -0.066,0 -0.11958,-0.0535 -0.11958,-0.11957 0,-0.0661 0.0535,-0.11958 0.11958,-0.11958 0.066,0 0.11958,0.0535 0.11958,0.11958 z m 6.05999,0 c 0,0.066 -0.0535,0.11957 -0.11958,0.11957 -0.066,0 -0.11958,-0.0535 -0.11958,-0.11957 0,-0.0661 0.0535,-0.11958 0.11958,-0.11958 0.066,0 0.11958,0.0535 0.11958,0.11958 z m -72.719885,6.05999 c 0,0.066 -0.05354,0.11957 -0.119578,0.11957 -0.06604,0 -0.119578,-0.0535 -0.119578,-0.11957 0,-0.066 0.05354,-0.11958 0.119578,-0.11958 0.06604,0 0.119578,0.0535 0.119578,0.11958 z m 6.05999,0 c 0,0.066 -0.05354,0.11957 -0.119578,0.11957 -0.06604,0 -0.119578,-0.0535 -0.119578,-0.11957 0,-0.066 0.05354,-0.11958 0.119578,-0.11958 0.06604,0 0.119578,0.0535 0.119578,0.11958 z m 6.05999,0 c 0,0.066 -0.05354,0.11957 -0.119578,0.11957 -0.06604,0 -0.119578,-0.0535 -0.119578,-0.11957 0,-0.066 0.05354,-0.11958 0.119578,-0.11958 0.06604,0 0.119578,0.0535 0.119578,0.11958 z m 6.059991,0 c 0,0.066 -0.05354,0.11957 -0.119579,0.11957 -0.06604,0 -0.119578,-0.0535 -0.119578,-0.11957 0,-0.066 0.05354,-0.11958 0.119578,-0.11958 0.06604,0 0.119579,0.0535 0.119579,0.11958 z m 6.05999,0 c 0,0.066 -0.05354,0.11957 -0.119579,0.11957 -0.06604,0 -0.119578,-0.0535 -0.119578,-0.11957 0,-0.066 0.05354,-0.11958 0.119578,-0.11958 0.06604,0 0.119579,0.0535 0.119579,0.11958 z m 6.059994,0 c 0,0.066 -0.0535,0.11957 -0.11958,0.11957 -0.066,0 -0.11958,-0.0535 -0.11958,-0.11957 0,-0.066 0.0535,-0.11958 0.11958,-0.11958 0.066,0 0.11958,0.0535 0.11958,0.11958 z m 6.05999,0 c 0,0.066 -0.0535,0.11957 -0.11958,0.11957 -0.066,0 -0.11958,-0.0535 -0.11958,-0.11957 0,-0.066 0.0535,-0.11958 0.11958,-0.11958 0.066,0 0.11958,0.0535 0.11958,0.11958 z m 6.05999,0 c 0,0.066 -0.0535,0.11957 -0.11958,0.11957 -0.066,0 -0.11958,-0.0535 -0.11958,-0.11957 0,-0.066 0.0535,-0.11958 0.11958,-0.11958 0.066,0 0.11958,0.0535 0.11958,0.11958 z m 6.05999,0 c 0,0.066 -0.0535,0.11957 -0.11958,0.11957 -0.066,0 -0.11958,-0.0535 -0.11958,-0.11957 0,-0.066 0.0535,-0.11958 0.11958,-0.11958 0.066,0 0.11958,0.0535 0.11958,0.11958 z m 6.05999,0 c 0,0.066 -0.0535,0.11957 -0.11958,0.11957 -0.066,0 -0.11958,-0.0535 -0.11958,-0.11957 0,-0.066 0.0535,-0.11958 0.11958,-0.11958 0.066,0 0.11958,0.0535 0.11958,0.11958 z m 6.05999,0 c 0,0.066 -0.0535,0.11957 -0.11958,0.11957 -0.066,0 -0.11958,-0.0535 -0.11958,-0.11957 0,-0.066 0.0535,-0.11958 0.11958,-0.11958 0.066,0 0.11958,0.0535 0.11958,0.11958 z m 6.05999,0 c 0,0.066 -0.0535,0.11957 -0.11958,0.11957 -0.066,0 -0.11958,-0.0535 -0.11958,-0.11957 0,-0.066 0.0535,-0.11958 0.11958,-0.11958 0.066,0 0.11958,0.0535 0.11958,0.11958 z m 6.05999,0 c 0,0.066 -0.0535,0.11957 -0.11958,0.11957 -0.066,0 -0.11958,-0.0535 -0.11958,-0.11957 0,-0.066 0.0535,-0.11958 0.11958,-0.11958 0.066,0 0.11958,0.0535 0.11958,0.11958 z"
       style="fill:#000000;fill-opacity:1;stroke:#000000;stroke-width:0.4;stroke-linecap:round;stroke-linejoin:round;stroke-dasharray:none;stroke-dashoffset:0;stroke-opacity:1" />
    <path
       style="fill:none;fill-opacity:1;stroke:#5d5d5d;stroke-width:0.197452;stroke-linecap:round;stroke-linejoin:round;stroke-dasharray:none;stroke-dashoffset:0;stroke-opacity:1"
       d="m 96.35989,254.10859 v -5.49087 h 7.02232 v -5.34246 h 6.20152 v -5.56507 l 60.04229,-0.1484 v 5.63927 h -6.74871 v 5.63925 h -6.29272 v 5.34246 z"
       id="path34"
       sodipodi:nodetypes="ccccccccccccc" />
    <path
       id="rect9253"
       style="fill:none;stroke:#000000;stroke-width:0.51381;stroke-linecap:round;stroke-linejoin:round"
       transform="matrix(1,0,-0.52606145,0.85044656,0,0)"
       d="m 265.54318,310.26886 h 60.57119 v 19.86063 h -60.57119 z" />
    <path
       style="fill:none;stroke:#000000;stroke-width:0.4;stroke-linecap:round;stroke-linejoin:round;stroke-dasharray:none;stroke-dashoffset:0;stroke-opacity:1"
       d="m 92.967208,278.53247 c 0,0 0.638658,0.0549 1.046622,0.77967 0.407964,0.72472 0.26664,1.29966 0.26664,1.29966"
       id="path9255"
       sodipodi:nodetypes="czc" />
    <g
       transform="matrix(0.20064737,0,0,0.20064737,94.500561,277.87979)"
       ns7:version="1.10.2"
       ns7:texconverter="pdflatex"
       ns7:pdfconverter="inkscape"
       ns7:text="$60 ^{\\circ} $"
       ns7:preamble="/Users/monadevos/Library/Application Support/org.inkscape.Inkscape/config/inkscape/extensions/textext/default_packages.tex"
       ns7:scale="1.0"
       ns7:alignment="middle center"
       ns7:stroke-to-path="0"
       ns7:inkscapeversion="1.3.2"
       id="g9290"
       ns7:jacobian_sqrt="0.352778">
      <defs
         id="defs9271" />
      <g
         fill="#000000"
         fill-opacity="1"
         id="g9281"
         transform="translate(-149.134,-127.915)">
        <g
           transform="translate(148.712,134.765)"
           id="g9275">
          <path
             d="m 1.3125,-3.265625 v -0.25 c 0,-2.515625 1.234375,-2.875 1.75,-2.875 0.234375,0 0.65625,0.0625 0.875,0.40625 -0.15625,0 -0.546875,0 -0.546875,0.4375 0,0.3125 0.234375,0.46875 0.453125,0.46875 0.15625,0 0.46875,-0.09375 0.46875,-0.484375 0,-0.59375 -0.4375,-1.078125 -1.265625,-1.078125 -1.28125,0 -2.625,1.28125 -2.625,3.484375 0,2.671875 1.15625,3.375 2.078125,3.375 1.109375,0 2.0625,-0.9375 2.0625,-2.25 0,-1.265625 -0.890625,-2.21875 -2,-2.21875 -0.671875,0 -1.046875,0.5 -1.25,0.984375 z M 2.5,-0.0625 c -0.625,0 -0.921875,-0.59375 -0.984375,-0.75 -0.1875,-0.46875 -0.1875,-1.265625 -0.1875,-1.4375 0,-0.78125 0.328125,-1.78125 1.21875,-1.78125 0.171875,0 0.625,0 0.9375,0.625 0.171875,0.359375 0.171875,0.875 0.171875,1.359375 0,0.484375 0,0.984375 -0.171875,1.34375 C 3.1875,-0.109375 2.734375,-0.0625 2.5,-0.0625 Z m 0,0"
             id="path9273" />
        </g>
        <g
           transform="translate(153.693,134.765)"
           id="g9279">
          <path
             d="m 4.578125,-3.1875 c 0,-0.796875 -0.046875,-1.59375 -0.390625,-2.328125 -0.453125,-0.96875 -1.28125,-1.125 -1.6875,-1.125 -0.609375,0 -1.328125,0.265625 -1.75,1.1875 -0.3125,0.6875 -0.359375,1.46875 -0.359375,2.265625 0,0.75 0.03125,1.640625 0.453125,2.40625 0.421875,0.796875 1.15625,1 1.640625,1 0.53125,0 1.296875,-0.203125 1.734375,-1.15625 0.3125,-0.6875 0.359375,-1.46875 0.359375,-2.25 z M 2.484375,0 C 2.09375,0 1.5,-0.25 1.328125,-1.203125 1.21875,-1.796875 1.21875,-2.71875 1.21875,-3.3125 c 0,-0.640625 0,-1.296875 0.078125,-1.828125 0.1875,-1.1875 0.9375,-1.28125 1.1875,-1.28125 0.328125,0 0.984375,0.1875 1.171875,1.171875 0.109375,0.5625 0.109375,1.3125 0.109375,1.9375 0,0.75 0,1.421875 -0.109375,2.0625 C 3.5,-0.296875 2.9375,0 2.484375,0 Z m 0,0"
             id="path9277" />
        </g>
      </g>
      <g
         fill="#000000"
         fill-opacity="1"
         id="g9288"
         transform="translate(-149.134,-127.915)">
        <g
           transform="translate(158.675,131.149)"
           id="g9285">
          <path
             d="m 3.53125,-1.734375 c 0,-0.84375 -0.671875,-1.5 -1.5,-1.5 -0.828125,0 -1.5,0.671875 -1.5,1.484375 0,0.84375 0.6875,1.5 1.5,1.5 0.84375,0 1.5,-0.671875 1.5,-1.484375 z m -1.5,1.140625 C 1.375,-0.59375 0.875,-1.125 0.875,-1.734375 c 0,-0.65625 0.515625,-1.171875 1.15625,-1.171875 0.65625,0 1.15625,0.53125 1.15625,1.15625 0,0.65625 -0.515625,1.15625 -1.15625,1.15625 z m 0,0"
             id="path9283" />
        </g>
      </g>
    </g>
    <path
       id="path9292"
       style="fill:none;stroke:#000000;stroke-width:0.4;stroke-linecap:round;stroke-linejoin:round"
       inkscape:transform-center-y="2.8537063"
       transform="matrix(1.5151675,0,0,-1.5151675,93.976129,669.35509)"
       d="M 18.554536,267.7226 H 5.5057742 l 6.5243808,-11.30056 z" />
    <path
       id="path9294"
       style="fill:none;stroke:#000000;stroke-width:0.4;stroke-linecap:round;stroke-linejoin:round"
       inkscape:transform-center-y="2.8537063"
       transform="matrix(1.5151675,0,0,-1.5151675,114.08447,669.35509)"
       d="M 18.554536,267.7226 H 5.5057742 l 6.5243808,-11.30056 z" />
    <path
       id="path9296"
       style="fill:none;stroke:#000000;stroke-width:0.4;stroke-linecap:round;stroke-linejoin:round"
       inkscape:transform-center-y="2.8537063"
       transform="matrix(1.5151675,0,0,-1.5151675,134.19281,669.35509)"
       d="M 18.554536,267.7226 H 5.5057742 l 6.5243808,-11.30056 z" />
    <path
       id="path9600"
       style="fill:#848384;stroke-width:0.061;stroke-miterlimit:1.9"
       d="m 103.07819,274.86267 a 0.98642677,0.92066497 0 0 1 -0.98642,0.92067 0.98642677,0.92066497 0 0 1 -0.98643,-0.92067 0.98642677,0.92066497 0 0 1 0.98643,-0.92066 0.98642677,0.92066497 0 0 1 0.98642,0.92066 z" />
    <path
       id="ellipse9602"
       style="fill:#848384;stroke-width:0.061;stroke-miterlimit:1.9"
       d="m 123.18653,274.86267 a 0.98642677,0.92066497 0 0 1 -0.98643,0.92067 0.98642677,0.92066497 0 0 1 -0.98642,-0.92067 0.98642677,0.92066497 0 0 1 0.98642,-0.92066 0.98642677,0.92066497 0 0 1 0.98643,0.92066 z" />
    <path
       id="ellipse9604"
       style="fill:#848384;stroke-width:0.061;stroke-miterlimit:1.9"
       d="m 143.29487,274.86267 a 0.98642677,0.92066497 0 0 1 -0.98643,0.92067 0.98642677,0.92066497 0 0 1 -0.98643,-0.92067 0.98642677,0.92066497 0 0 1 0.98643,-0.92066 0.98642677,0.92066497 0 0 1 0.98643,0.92066 z" />
    <path
       id="ellipse9606"
       style="fill:#848384;stroke-width:0.061;stroke-miterlimit:1.9"
       d="m 113.66151,269.57101 a 0.98642677,0.92066497 0 0 1 -0.98642,0.92067 0.98642677,0.92066497 0 0 1 -0.98643,-0.92067 0.98642677,0.92066497 0 0 1 0.98643,-0.92066 0.98642677,0.92066497 0 0 1 0.98642,0.92066 z" />
    <path
       id="ellipse9608"
       style="fill:#848384;stroke-width:0.061;stroke-miterlimit:1.9"
       d="m 133.76983,269.57101 a 0.98642677,0.92066497 0 0 1 -0.98643,0.92067 0.98642677,0.92066497 0 0 1 -0.98643,-0.92067 0.98642677,0.92066497 0 0 1 0.98643,-0.92066 0.98642677,0.92066497 0 0 1 0.98643,0.92066 z" />
    <path
       id="ellipse9610"
       style="fill:#848384;stroke-width:0.061;stroke-miterlimit:1.9"
       d="m 153.87821,269.57101 a 0.98642677,0.92066497 0 0 1 -0.98643,0.92067 0.98642677,0.92066497 0 0 1 -0.98642,-0.92067 0.98642677,0.92066497 0 0 1 0.98642,-0.92066 0.98642677,0.92066497 0 0 1 0.98643,0.92066 z" />
    <path
       id="rect9612"
       style="fill:none;stroke:#000000;stroke-width:0.51381;stroke-linecap:round;stroke-linejoin:round"
       transform="matrix(1,0,-0.52606145,0.85044656,0,0)"
       d="m 254.46854,279.15771 h 60.57118 v 19.86063 h -60.57118 z" />
  </g>
</svg>
