<?xml version="1.0" encoding="utf-8" standalone="no"?>
<!DOCTYPE svg PUBLIC "-//W3C//DTD SVG 1.1//EN"
  "http://www.w3.org/Graphics/SVG/1.1/DTD/svg11.dtd">
<svg xmlns:xlink="http://www.w3.org/1999/xlink" width="288pt" height="288pt" viewBox="0 0 288 288" xmlns="http://www.w3.org/2000/svg" version="1.1">
 <metadata>
  <rdf:RDF xmlns:dc="http://purl.org/dc/elements/1.1/" xmlns:cc="http://creativecommons.org/ns#" xmlns:rdf="http://www.w3.org/1999/02/22-rdf-syntax-ns#">
   <cc:Work>
    <dc:type rdf:resource="http://purl.org/dc/dcmitype/StillImage"/>
    <dc:date>2024-10-17T05:21:43.683144</dc:date>
    <dc:format>image/svg+xml</dc:format>
    <dc:creator>
     <cc:Agent>
      <dc:title>Matplotlib v3.9.2, https://matplotlib.org/</dc:title>
     </cc:Agent>
    </dc:creator>
   </cc:Work>
  </rdf:RDF>
 </metadata>
 <defs>
  <style type="text/css">*{stroke-linejoin: round; stroke-linecap: butt}</style>
 </defs>
 <g id="figure_1">
  <g id="patch_1">
   <path d="M 0 288 
L 288 288 
L 288 0 
L 0 0 
z
" style="fill: #ffffff"/>
  </g>
  <g id="axes_1">
   <g id="patch_2">
    <path d="M 43.88774 253.521635 
L 275.45601 253.521635 
L 275.45601 19.92024 
L 43.88774 19.92024 
z
" style="fill: #ffffff"/>
   </g>
   <g id="PathCollection_1">
    <defs>
     <path id="m16a9cfb2ab" d="M 0 3 
C 0.795609 3 1.55874 2.683901 2.12132 2.12132 
C 2.683901 1.55874 3 0.795609 3 0 
C 3 -0.795609 2.683901 -1.55874 2.12132 -2.12132 
C 1.55874 -2.683901 0.795609 -3 0 -3 
C -0.795609 -3 -1.55874 -2.683901 -2.12132 -2.12132 
C -2.683901 -1.55874 -3 -0.795609 -3 0 
C -3 0.795609 -2.683901 1.55874 -2.12132 2.12132 
C -1.55874 2.683901 -0.795609 3 0 3 
z
" style="stroke: #1f77b4"/>
    </defs>
    <g clip-path="url(#p2c98dae4e2)">
     <use xlink:href="#m16a9cfb2ab" x="140.591276" y="187.743646" style="fill: #1f77b4; stroke: #1f77b4"/>
     <use xlink:href="#m16a9cfb2ab" x="185.472817" y="150.885352" style="fill: #1f77b4; stroke: #1f77b4"/>
     <use xlink:href="#m16a9cfb2ab" x="115.684039" y="198.1474" style="fill: #1f77b4; stroke: #1f77b4"/>
     <use xlink:href="#m16a9cfb2ab" x="203.08616" y="135.679613" style="fill: #1f77b4; stroke: #1f77b4"/>
     <use xlink:href="#m16a9cfb2ab" x="187.16271" y="126.41183" style="fill: #1f77b4; stroke: #1f77b4"/>
     <use xlink:href="#m16a9cfb2ab" x="155.784049" y="179.320918" style="fill: #1f77b4; stroke: #1f77b4"/>
     <use xlink:href="#m16a9cfb2ab" x="140.239532" y="179.296688" style="fill: #1f77b4; stroke: #1f77b4"/>
     <use xlink:href="#m16a9cfb2ab" x="186.200901" y="180.681018" style="fill: #1f77b4; stroke: #1f77b4"/>
     <use xlink:href="#m16a9cfb2ab" x="119.723243" y="177.054824" style="fill: #1f77b4; stroke: #1f77b4"/>
     <use xlink:href="#m16a9cfb2ab" x="238.255671" y="58.301636" style="fill: #1f77b4; stroke: #1f77b4"/>
     <use xlink:href="#m16a9cfb2ab" x="225.124745" y="50.480762" style="fill: #1f77b4; stroke: #1f77b4"/>
     <use xlink:href="#m16a9cfb2ab" x="201.224815" y="116.715626" style="fill: #1f77b4; stroke: #1f77b4"/>
     <use xlink:href="#m16a9cfb2ab" x="97.360814" y="194.788105" style="fill: #1f77b4; stroke: #1f77b4"/>
     <use xlink:href="#m16a9cfb2ab" x="147.091139" y="199.550195" style="fill: #1f77b4; stroke: #1f77b4"/>
     <use xlink:href="#m16a9cfb2ab" x="130.552943" y="180.072709" style="fill: #1f77b4; stroke: #1f77b4"/>
     <use xlink:href="#m16a9cfb2ab" x="160.962018" y="154.955913" style="fill: #1f77b4; stroke: #1f77b4"/>
     <use xlink:href="#m16a9cfb2ab" x="101.432609" y="180.152197" style="fill: #1f77b4; stroke: #1f77b4"/>
     <use xlink:href="#m16a9cfb2ab" x="99.21" y="165.247841" style="fill: #1f77b4; stroke: #1f77b4"/>
     <use xlink:href="#m16a9cfb2ab" x="96.317978" y="214.020481" style="fill: #1f77b4; stroke: #1f77b4"/>
     <use xlink:href="#m16a9cfb2ab" x="174.166656" y="149.547831" style="fill: #1f77b4; stroke: #1f77b4"/>
     <use xlink:href="#m16a9cfb2ab" x="256.376792" y="157.305889" style="fill: #1f77b4; stroke: #1f77b4"/>
     <use xlink:href="#m16a9cfb2ab" x="113.346096" y="177.440322" style="fill: #1f77b4; stroke: #1f77b4"/>
     <use xlink:href="#m16a9cfb2ab" x="151.500979" y="140.861957" style="fill: #1f77b4; stroke: #1f77b4"/>
     <use xlink:href="#m16a9cfb2ab" x="101.110952" y="215.070164" style="fill: #1f77b4; stroke: #1f77b4"/>
     <use xlink:href="#m16a9cfb2ab" x="94.652431" y="197.65575" style="fill: #1f77b4; stroke: #1f77b4"/>
     <use xlink:href="#m16a9cfb2ab" x="131.947975" y="192.490272" style="fill: #1f77b4; stroke: #1f77b4"/>
     <use xlink:href="#m16a9cfb2ab" x="81.239592" y="181.170804" style="fill: #1f77b4; stroke: #1f77b4"/>
     <use xlink:href="#m16a9cfb2ab" x="136.249318" y="180.642263" style="fill: #1f77b4; stroke: #1f77b4"/>
     <use xlink:href="#m16a9cfb2ab" x="115.30086" y="170.578218" style="fill: #1f77b4; stroke: #1f77b4"/>
     <use xlink:href="#m16a9cfb2ab" x="100.034798" y="196.437648" style="fill: #1f77b4; stroke: #1f77b4"/>
     <use xlink:href="#m16a9cfb2ab" x="253.800466" y="4.735449" style="fill: #1f77b4; stroke: #1f77b4"/>
     <use xlink:href="#m16a9cfb2ab" x="127.218406" y="203.546062" style="fill: #1f77b4; stroke: #1f77b4"/>
     <use xlink:href="#m16a9cfb2ab" x="74.78647" y="212.887682" style="fill: #1f77b4; stroke: #1f77b4"/>
     <use xlink:href="#m16a9cfb2ab" x="249.490256" y="104.957045" style="fill: #1f77b4; stroke: #1f77b4"/>
     <use xlink:href="#m16a9cfb2ab" x="137.123776" y="191.802232" style="fill: #1f77b4; stroke: #1f77b4"/>
    </g>
   </g>
   <g id="patch_3">
    <path d="M 43.88774 253.521635 
L 159.671875 253.521635 
L 159.671875 165.921112 
L 43.88774 165.921112 
z
" clip-path="url(#p2c98dae4e2)" style="fill: #ff7f0e; opacity: 0.5"/>
   </g>
   <g id="PathCollection_2">
    <defs>
     <path id="m2883bee1cb" d="M 0 3 
C 0.795609 3 1.55874 2.683901 2.12132 2.12132 
C 2.683901 1.55874 3 0.795609 3 0 
C 3 -0.795609 2.683901 -1.55874 2.12132 -2.12132 
C 1.55874 -2.683901 0.795609 -3 0 -3 
C -0.795609 -3 -1.55874 -2.683901 -2.12132 -2.12132 
C -2.683901 -1.55874 -3 -0.795609 -3 0 
C -3 0.795609 -2.683901 1.55874 -2.12132 2.12132 
C -1.55874 2.683901 -0.795609 3 0 3 
z
" style="stroke: #000000"/>
    </defs>
    <g clip-path="url(#p2c98dae4e2)">
     <use xlink:href="#m2883bee1cb" x="140.591276" y="187.743646" style="stroke: #000000"/>
     <use xlink:href="#m2883bee1cb" x="115.684039" y="198.1474" style="stroke: #000000"/>
     <use xlink:href="#m2883bee1cb" x="155.784049" y="179.320918" style="stroke: #000000"/>
     <use xlink:href="#m2883bee1cb" x="140.239532" y="179.296688" style="stroke: #000000"/>
     <use xlink:href="#m2883bee1cb" x="119.723243" y="177.054824" style="stroke: #000000"/>
     <use xlink:href="#m2883bee1cb" x="97.360814" y="194.788105" style="stroke: #000000"/>
     <use xlink:href="#m2883bee1cb" x="147.091139" y="199.550195" style="stroke: #000000"/>
     <use xlink:href="#m2883bee1cb" x="130.552943" y="180.072709" style="stroke: #000000"/>
     <use xlink:href="#m2883bee1cb" x="101.432609" y="180.152197" style="stroke: #000000"/>
     <use xlink:href="#m2883bee1cb" x="96.317978" y="214.020481" style="stroke: #000000"/>
     <use xlink:href="#m2883bee1cb" x="113.346096" y="177.440322" style="stroke: #000000"/>
     <use xlink:href="#m2883bee1cb" x="101.110952" y="215.070164" style="stroke: #000000"/>
     <use xlink:href="#m2883bee1cb" x="94.652431" y="197.65575" style="stroke: #000000"/>
     <use xlink:href="#m2883bee1cb" x="131.947975" y="192.490272" style="stroke: #000000"/>
     <use xlink:href="#m2883bee1cb" x="81.239592" y="181.170804" style="stroke: #000000"/>
     <use xlink:href="#m2883bee1cb" x="136.249318" y="180.642263" style="stroke: #000000"/>
     <use xlink:href="#m2883bee1cb" x="115.30086" y="170.578218" style="stroke: #000000"/>
     <use xlink:href="#m2883bee1cb" x="100.034798" y="196.437648" style="stroke: #000000"/>
     <use xlink:href="#m2883bee1cb" x="127.218406" y="203.546062" style="stroke: #000000"/>
     <use xlink:href="#m2883bee1cb" x="74.78647" y="212.887682" style="stroke: #000000"/>
     <use xlink:href="#m2883bee1cb" x="137.123776" y="191.802232" style="stroke: #000000"/>
    </g>
   </g>
   <g id="matplotlib.axis_1">
    <g id="xtick_1">
     <g id="line2d_1">
      <path d="M 43.88774 253.521635 
L 43.88774 19.92024 
" clip-path="url(#p2c98dae4e2)" style="fill: none; stroke: #b0b0b0; stroke-width: 0.8; stroke-linecap: square"/>
     </g>
     <g id="line2d_2">
      <defs>
       <path id="maaa639fc2e" d="M 0 0 
L 0 3.5 
" style="stroke: #000000; stroke-width: 0.8"/>
      </defs>
      <g>
       <use xlink:href="#maaa639fc2e" x="43.88774" y="253.521635" style="stroke: #000000; stroke-width: 0.8"/>
      </g>
     </g>
     <g id="text_1">
      <!-- 0 -->
      <g transform="translate(40.70649 268.120072) scale(0.1 -0.1)">
       <defs>
        <path id="DejaVuSans-30" d="M 2034 4250 
Q 1547 4250 1301 3770 
Q 1056 3291 1056 2328 
Q 1056 1369 1301 889 
Q 1547 409 2034 409 
Q 2525 409 2770 889 
Q 3016 1369 3016 2328 
Q 3016 3291 2770 3770 
Q 2525 4250 2034 4250 
z
M 2034 4750 
Q 2819 4750 3233 4129 
Q 3647 3509 3647 2328 
Q 3647 1150 3233 529 
Q 2819 -91 2034 -91 
Q 1250 -91 836 529 
Q 422 1150 422 2328 
Q 422 3509 836 4129 
Q 1250 4750 2034 4750 
z
" transform="scale(0.015625)"/>
       </defs>
       <use xlink:href="#DejaVuSans-30"/>
      </g>
     </g>
    </g>
    <g id="xtick_2">
     <g id="line2d_3">
      <path d="M 101.779808 253.521635 
L 101.779808 19.92024 
" clip-path="url(#p2c98dae4e2)" style="fill: none; stroke: #b0b0b0; stroke-width: 0.8; stroke-linecap: square"/>
     </g>
     <g id="line2d_4">
      <g>
       <use xlink:href="#maaa639fc2e" x="101.779808" y="253.521635" style="stroke: #000000; stroke-width: 0.8"/>
      </g>
     </g>
     <g id="text_2">
      <!-- 50 -->
      <g transform="translate(95.417308 268.120072) scale(0.1 -0.1)">
       <defs>
        <path id="DejaVuSans-35" d="M 691 4666 
L 3169 4666 
L 3169 4134 
L 1269 4134 
L 1269 2991 
Q 1406 3038 1543 3061 
Q 1681 3084 1819 3084 
Q 2600 3084 3056 2656 
Q 3513 2228 3513 1497 
Q 3513 744 3044 326 
Q 2575 -91 1722 -91 
Q 1428 -91 1123 -41 
Q 819 9 494 109 
L 494 744 
Q 775 591 1075 516 
Q 1375 441 1709 441 
Q 2250 441 2565 725 
Q 2881 1009 2881 1497 
Q 2881 1984 2565 2268 
Q 2250 2553 1709 2553 
Q 1456 2553 1204 2497 
Q 953 2441 691 2322 
L 691 4666 
z
" transform="scale(0.015625)"/>
       </defs>
       <use xlink:href="#DejaVuSans-35"/>
       <use xlink:href="#DejaVuSans-30" x="63.623047"/>
      </g>
     </g>
    </g>
    <g id="xtick_3">
     <g id="line2d_5">
      <path d="M 159.671875 253.521635 
L 159.671875 19.92024 
" clip-path="url(#p2c98dae4e2)" style="fill: none; stroke: #b0b0b0; stroke-width: 0.8; stroke-linecap: square"/>
     </g>
     <g id="line2d_6">
      <g>
       <use xlink:href="#maaa639fc2e" x="159.671875" y="253.521635" style="stroke: #000000; stroke-width: 0.8"/>
      </g>
     </g>
     <g id="text_3">
      <!-- 100 -->
      <g transform="translate(150.128125 268.120072) scale(0.1 -0.1)">
       <defs>
        <path id="DejaVuSans-31" d="M 794 531 
L 1825 531 
L 1825 4091 
L 703 3866 
L 703 4441 
L 1819 4666 
L 2450 4666 
L 2450 531 
L 3481 531 
L 3481 0 
L 794 0 
L 794 531 
z
" transform="scale(0.015625)"/>
       </defs>
       <use xlink:href="#DejaVuSans-31"/>
       <use xlink:href="#DejaVuSans-30" x="63.623047"/>
       <use xlink:href="#DejaVuSans-30" x="127.246094"/>
      </g>
     </g>
    </g>
    <g id="xtick_4">
     <g id="line2d_7">
      <path d="M 217.563943 253.521635 
L 217.563943 19.92024 
" clip-path="url(#p2c98dae4e2)" style="fill: none; stroke: #b0b0b0; stroke-width: 0.8; stroke-linecap: square"/>
     </g>
     <g id="line2d_8">
      <g>
       <use xlink:href="#maaa639fc2e" x="217.563943" y="253.521635" style="stroke: #000000; stroke-width: 0.8"/>
      </g>
     </g>
     <g id="text_4">
      <!-- 150 -->
      <g transform="translate(208.020193 268.120072) scale(0.1 -0.1)">
       <use xlink:href="#DejaVuSans-31"/>
       <use xlink:href="#DejaVuSans-35" x="63.623047"/>
       <use xlink:href="#DejaVuSans-30" x="127.246094"/>
      </g>
     </g>
    </g>
    <g id="xtick_5">
     <g id="line2d_9">
      <path d="M 275.45601 253.521635 
L 275.45601 19.92024 
" clip-path="url(#p2c98dae4e2)" style="fill: none; stroke: #b0b0b0; stroke-width: 0.8; stroke-linecap: square"/>
     </g>
     <g id="line2d_10">
      <g>
       <use xlink:href="#maaa639fc2e" x="275.45601" y="253.521635" style="stroke: #000000; stroke-width: 0.8"/>
      </g>
     </g>
     <g id="text_5">
      <!-- 200 -->
      <g transform="translate(265.91226 268.120072) scale(0.1 -0.1)">
       <defs>
        <path id="DejaVuSans-32" d="M 1228 531 
L 3431 531 
L 3431 0 
L 469 0 
L 469 531 
Q 828 903 1448 1529 
Q 2069 2156 2228 2338 
Q 2531 2678 2651 2914 
Q 2772 3150 2772 3378 
Q 2772 3750 2511 3984 
Q 2250 4219 1831 4219 
Q 1534 4219 1204 4116 
Q 875 4013 500 3803 
L 500 4441 
Q 881 4594 1212 4672 
Q 1544 4750 1819 4750 
Q 2544 4750 2975 4387 
Q 3406 4025 3406 3419 
Q 3406 3131 3298 2873 
Q 3191 2616 2906 2266 
Q 2828 2175 2409 1742 
Q 1991 1309 1228 531 
z
" transform="scale(0.015625)"/>
       </defs>
       <use xlink:href="#DejaVuSans-32"/>
       <use xlink:href="#DejaVuSans-30" x="63.623047"/>
       <use xlink:href="#DejaVuSans-30" x="127.246094"/>
      </g>
     </g>
    </g>
    <g id="text_6">
     <!-- ${Q_1 (m^3/s)}$ -->
     <g transform="translate(137.671875 282.920073) scale(0.1 -0.1)">
      <defs>
       <path id="DejaVuSans-Oblique-51" d="M 2309 -84 
Q 2275 -88 2237 -89 
Q 2200 -91 2125 -91 
Q 1250 -91 756 411 
Q 263 913 263 1797 
Q 263 2319 452 2844 
Q 641 3369 978 3788 
Q 1369 4269 1858 4509 
Q 2347 4750 2938 4750 
Q 3794 4750 4287 4245 
Q 4781 3741 4781 2869 
Q 4781 1928 4265 1147 
Q 3750 366 2919 44 
L 3553 -825 
L 2847 -825 
L 2309 -84 
z
M 2919 4238 
Q 2400 4238 2003 3986 
Q 1606 3734 1313 3219 
Q 1125 2891 1026 2522 
Q 928 2153 928 1778 
Q 928 1128 1239 775 
Q 1550 422 2119 422 
Q 2631 422 3032 676 
Q 3434 931 3719 1434 
Q 3909 1772 4009 2142 
Q 4109 2513 4109 2881 
Q 4109 3528 3796 3883 
Q 3484 4238 2919 4238 
z
" transform="scale(0.015625)"/>
       <path id="DejaVuSans-28" d="M 1984 4856 
Q 1566 4138 1362 3434 
Q 1159 2731 1159 2009 
Q 1159 1288 1364 580 
Q 1569 -128 1984 -844 
L 1484 -844 
Q 1016 -109 783 600 
Q 550 1309 550 2009 
Q 550 2706 781 3412 
Q 1013 4119 1484 4856 
L 1984 4856 
z
" transform="scale(0.015625)"/>
       <path id="DejaVuSans-Oblique-6d" d="M 5747 2113 
L 5338 0 
L 4763 0 
L 5166 2094 
Q 5191 2228 5203 2325 
Q 5216 2422 5216 2491 
Q 5216 2772 5059 2928 
Q 4903 3084 4622 3084 
Q 4203 3084 3875 2770 
Q 3547 2456 3450 1953 
L 3066 0 
L 2491 0 
L 2900 2094 
Q 2925 2209 2937 2307 
Q 2950 2406 2950 2484 
Q 2950 2769 2794 2926 
Q 2638 3084 2363 3084 
Q 1938 3084 1609 2770 
Q 1281 2456 1184 1953 
L 800 0 
L 225 0 
L 909 3500 
L 1484 3500 
L 1375 2956 
Q 1609 3263 1923 3423 
Q 2238 3584 2597 3584 
Q 2978 3584 3223 3384 
Q 3469 3184 3519 2828 
Q 3781 3197 4126 3390 
Q 4472 3584 4856 3584 
Q 5306 3584 5551 3325 
Q 5797 3066 5797 2591 
Q 5797 2488 5784 2364 
Q 5772 2241 5747 2113 
z
" transform="scale(0.015625)"/>
       <path id="DejaVuSans-33" d="M 2597 2516 
Q 3050 2419 3304 2112 
Q 3559 1806 3559 1356 
Q 3559 666 3084 287 
Q 2609 -91 1734 -91 
Q 1441 -91 1130 -33 
Q 819 25 488 141 
L 488 750 
Q 750 597 1062 519 
Q 1375 441 1716 441 
Q 2309 441 2620 675 
Q 2931 909 2931 1356 
Q 2931 1769 2642 2001 
Q 2353 2234 1838 2234 
L 1294 2234 
L 1294 2753 
L 1863 2753 
Q 2328 2753 2575 2939 
Q 2822 3125 2822 3475 
Q 2822 3834 2567 4026 
Q 2313 4219 1838 4219 
Q 1578 4219 1281 4162 
Q 984 4106 628 3988 
L 628 4550 
Q 988 4650 1302 4700 
Q 1616 4750 1894 4750 
Q 2613 4750 3031 4423 
Q 3450 4097 3450 3541 
Q 3450 3153 3228 2886 
Q 3006 2619 2597 2516 
z
" transform="scale(0.015625)"/>
       <path id="DejaVuSans-2f" d="M 1625 4666 
L 2156 4666 
L 531 -594 
L 0 -594 
L 1625 4666 
z
" transform="scale(0.015625)"/>
       <path id="DejaVuSans-Oblique-73" d="M 3200 3397 
L 3091 2853 
Q 2863 2978 2609 3040 
Q 2356 3103 2088 3103 
Q 1634 3103 1373 2948 
Q 1113 2794 1113 2528 
Q 1113 2219 1719 2053 
Q 1766 2041 1788 2034 
L 1972 1978 
Q 2547 1819 2739 1644 
Q 2931 1469 2931 1166 
Q 2931 609 2489 259 
Q 2047 -91 1331 -91 
Q 1053 -91 747 -37 
Q 441 16 72 128 
L 184 722 
Q 500 559 806 475 
Q 1113 391 1394 391 
Q 1816 391 2080 572 
Q 2344 753 2344 1031 
Q 2344 1331 1650 1516 
L 1591 1531 
L 1394 1581 
Q 956 1697 753 1886 
Q 550 2075 550 2369 
Q 550 2928 970 3256 
Q 1391 3584 2113 3584 
Q 2397 3584 2667 3537 
Q 2938 3491 3200 3397 
z
" transform="scale(0.015625)"/>
       <path id="DejaVuSans-29" d="M 513 4856 
L 1013 4856 
Q 1481 4119 1714 3412 
Q 1947 2706 1947 2009 
Q 1947 1309 1714 600 
Q 1481 -109 1013 -844 
L 513 -844 
Q 928 -128 1133 580 
Q 1338 1288 1338 2009 
Q 1338 2731 1133 3434 
Q 928 4138 513 4856 
z
" transform="scale(0.015625)"/>
      </defs>
      <use xlink:href="#DejaVuSans-Oblique-51" transform="translate(0 0.765625)"/>
      <use xlink:href="#DejaVuSans-31" transform="translate(78.710938 -15.640625) scale(0.7)"/>
      <use xlink:href="#DejaVuSans-28" transform="translate(125.981445 0.765625)"/>
      <use xlink:href="#DejaVuSans-Oblique-6d" transform="translate(164.995117 0.765625)"/>
      <use xlink:href="#DejaVuSans-33" transform="translate(267.057122 39.046875) scale(0.7)"/>
      <use xlink:href="#DejaVuSans-2f" transform="translate(314.32763 0.765625)"/>
      <use xlink:href="#DejaVuSans-Oblique-73" transform="translate(348.019036 0.765625)"/>
      <use xlink:href="#DejaVuSans-29" transform="translate(400.118646 0.765625)"/>
     </g>
    </g>
   </g>
   <g id="matplotlib.axis_2">
    <g id="ytick_1">
     <g id="line2d_11">
      <path d="M 43.88774 253.521635 
L 275.45601 253.521635 
" clip-path="url(#p2c98dae4e2)" style="fill: none; stroke: #b0b0b0; stroke-width: 0.8; stroke-linecap: square"/>
     </g>
     <g id="line2d_12">
      <defs>
       <path id="mb480a47794" d="M 0 0 
L -3.5 0 
" style="stroke: #000000; stroke-width: 0.8"/>
      </defs>
      <g>
       <use xlink:href="#mb480a47794" x="43.88774" y="253.521635" style="stroke: #000000; stroke-width: 0.8"/>
      </g>
     </g>
     <g id="text_7">
      <!-- 0 -->
      <g transform="translate(30.52524 257.320854) scale(0.1 -0.1)">
       <use xlink:href="#DejaVuSans-30"/>
      </g>
     </g>
    </g>
    <g id="ytick_2">
     <g id="line2d_13">
      <path d="M 43.88774 224.321461 
L 275.45601 224.321461 
" clip-path="url(#p2c98dae4e2)" style="fill: none; stroke: #b0b0b0; stroke-width: 0.8; stroke-linecap: square"/>
     </g>
     <g id="line2d_14">
      <g>
       <use xlink:href="#mb480a47794" x="43.88774" y="224.321461" style="stroke: #000000; stroke-width: 0.8"/>
      </g>
     </g>
     <g id="text_8">
      <!-- 25 -->
      <g transform="translate(24.16274 228.120679) scale(0.1 -0.1)">
       <use xlink:href="#DejaVuSans-32"/>
       <use xlink:href="#DejaVuSans-35" x="63.623047"/>
      </g>
     </g>
    </g>
    <g id="ytick_3">
     <g id="line2d_15">
      <path d="M 43.88774 195.121286 
L 275.45601 195.121286 
" clip-path="url(#p2c98dae4e2)" style="fill: none; stroke: #b0b0b0; stroke-width: 0.8; stroke-linecap: square"/>
     </g>
     <g id="line2d_16">
      <g>
       <use xlink:href="#mb480a47794" x="43.88774" y="195.121286" style="stroke: #000000; stroke-width: 0.8"/>
      </g>
     </g>
     <g id="text_9">
      <!-- 50 -->
      <g transform="translate(24.16274 198.920505) scale(0.1 -0.1)">
       <use xlink:href="#DejaVuSans-35"/>
       <use xlink:href="#DejaVuSans-30" x="63.623047"/>
      </g>
     </g>
    </g>
    <g id="ytick_4">
     <g id="line2d_17">
      <path d="M 43.88774 165.921112 
L 275.45601 165.921112 
" clip-path="url(#p2c98dae4e2)" style="fill: none; stroke: #b0b0b0; stroke-width: 0.8; stroke-linecap: square"/>
     </g>
     <g id="line2d_18">
      <g>
       <use xlink:href="#mb480a47794" x="43.88774" y="165.921112" style="stroke: #000000; stroke-width: 0.8"/>
      </g>
     </g>
     <g id="text_10">
      <!-- 75 -->
      <g transform="translate(24.16274 169.720331) scale(0.1 -0.1)">
       <defs>
        <path id="DejaVuSans-37" d="M 525 4666 
L 3525 4666 
L 3525 4397 
L 1831 0 
L 1172 0 
L 2766 4134 
L 525 4134 
L 525 4666 
z
" transform="scale(0.015625)"/>
       </defs>
       <use xlink:href="#DejaVuSans-37"/>
       <use xlink:href="#DejaVuSans-35" x="63.623047"/>
      </g>
     </g>
    </g>
    <g id="ytick_5">
     <g id="line2d_19">
      <path d="M 43.88774 136.720937 
L 275.45601 136.720937 
" clip-path="url(#p2c98dae4e2)" style="fill: none; stroke: #b0b0b0; stroke-width: 0.8; stroke-linecap: square"/>
     </g>
     <g id="line2d_20">
      <g>
       <use xlink:href="#mb480a47794" x="43.88774" y="136.720937" style="stroke: #000000; stroke-width: 0.8"/>
      </g>
     </g>
     <g id="text_11">
      <!-- 100 -->
      <g transform="translate(17.80024 140.520156) scale(0.1 -0.1)">
       <use xlink:href="#DejaVuSans-31"/>
       <use xlink:href="#DejaVuSans-30" x="63.623047"/>
       <use xlink:href="#DejaVuSans-30" x="127.246094"/>
      </g>
     </g>
    </g>
    <g id="ytick_6">
     <g id="line2d_21">
      <path d="M 43.88774 107.520763 
L 275.45601 107.520763 
" clip-path="url(#p2c98dae4e2)" style="fill: none; stroke: #b0b0b0; stroke-width: 0.8; stroke-linecap: square"/>
     </g>
     <g id="line2d_22">
      <g>
       <use xlink:href="#mb480a47794" x="43.88774" y="107.520763" style="stroke: #000000; stroke-width: 0.8"/>
      </g>
     </g>
     <g id="text_12">
      <!-- 125 -->
      <g transform="translate(17.80024 111.319982) scale(0.1 -0.1)">
       <use xlink:href="#DejaVuSans-31"/>
       <use xlink:href="#DejaVuSans-32" x="63.623047"/>
       <use xlink:href="#DejaVuSans-35" x="127.246094"/>
      </g>
     </g>
    </g>
    <g id="ytick_7">
     <g id="line2d_23">
      <path d="M 43.88774 78.320589 
L 275.45601 78.320589 
" clip-path="url(#p2c98dae4e2)" style="fill: none; stroke: #b0b0b0; stroke-width: 0.8; stroke-linecap: square"/>
     </g>
     <g id="line2d_24">
      <g>
       <use xlink:href="#mb480a47794" x="43.88774" y="78.320589" style="stroke: #000000; stroke-width: 0.8"/>
      </g>
     </g>
     <g id="text_13">
      <!-- 150 -->
      <g transform="translate(17.80024 82.119807) scale(0.1 -0.1)">
       <use xlink:href="#DejaVuSans-31"/>
       <use xlink:href="#DejaVuSans-35" x="63.623047"/>
       <use xlink:href="#DejaVuSans-30" x="127.246094"/>
      </g>
     </g>
    </g>
    <g id="ytick_8">
     <g id="line2d_25">
      <path d="M 43.88774 49.120414 
L 275.45601 49.120414 
" clip-path="url(#p2c98dae4e2)" style="fill: none; stroke: #b0b0b0; stroke-width: 0.8; stroke-linecap: square"/>
     </g>
     <g id="line2d_26">
      <g>
       <use xlink:href="#mb480a47794" x="43.88774" y="49.120414" style="stroke: #000000; stroke-width: 0.8"/>
      </g>
     </g>
     <g id="text_14">
      <!-- 175 -->
      <g transform="translate(17.80024 52.919633) scale(0.1 -0.1)">
       <use xlink:href="#DejaVuSans-31"/>
       <use xlink:href="#DejaVuSans-37" x="63.623047"/>
       <use xlink:href="#DejaVuSans-35" x="127.246094"/>
      </g>
     </g>
    </g>
    <g id="ytick_9">
     <g id="line2d_27">
      <path d="M 43.88774 19.92024 
L 275.45601 19.92024 
" clip-path="url(#p2c98dae4e2)" style="fill: none; stroke: #b0b0b0; stroke-width: 0.8; stroke-linecap: square"/>
     </g>
     <g id="line2d_28">
      <g>
       <use xlink:href="#mb480a47794" x="43.88774" y="19.92024" style="stroke: #000000; stroke-width: 0.8"/>
      </g>
     </g>
     <g id="text_15">
      <!-- 200 -->
      <g transform="translate(17.80024 23.719459) scale(0.1 -0.1)">
       <use xlink:href="#DejaVuSans-32"/>
       <use xlink:href="#DejaVuSans-30" x="63.623047"/>
       <use xlink:href="#DejaVuSans-30" x="127.246094"/>
      </g>
     </g>
    </g>
    <g id="text_16">
     <!-- ${Q_2 (m^3/s)}$ -->
     <g transform="translate(11.720552 158.720937) rotate(-90) scale(0.1 -0.1)">
      <use xlink:href="#DejaVuSans-Oblique-51" transform="translate(0 0.765625)"/>
      <use xlink:href="#DejaVuSans-32" transform="translate(78.710938 -15.640625) scale(0.7)"/>
      <use xlink:href="#DejaVuSans-28" transform="translate(125.981445 0.765625)"/>
      <use xlink:href="#DejaVuSans-Oblique-6d" transform="translate(164.995117 0.765625)"/>
      <use xlink:href="#DejaVuSans-33" transform="translate(267.057122 39.046875) scale(0.7)"/>
      <use xlink:href="#DejaVuSans-2f" transform="translate(314.32763 0.765625)"/>
      <use xlink:href="#DejaVuSans-Oblique-73" transform="translate(348.019036 0.765625)"/>
      <use xlink:href="#DejaVuSans-29" transform="translate(400.118646 0.765625)"/>
     </g>
    </g>
   </g>
   <g id="line2d_29">
    <path d="M 159.671875 253.521635 
L 159.671875 19.92024 
" clip-path="url(#p2c98dae4e2)" style="fill: none; stroke-dasharray: 7.4,3.2; stroke-dashoffset: 0; stroke: #000000; stroke-width: 2"/>
   </g>
   <g id="line2d_30">
    <path d="M 43.88774 165.921112 
L 275.45601 165.921112 
" clip-path="url(#p2c98dae4e2)" style="fill: none; stroke-dasharray: 7.4,3.2; stroke-dashoffset: 0; stroke: #000000; stroke-width: 2"/>
   </g>
   <g id="patch_4">
    <path d="M 43.88774 253.521635 
L 43.88774 19.92024 
" style="fill: none; stroke: #000000; stroke-width: 0.8; stroke-linejoin: miter; stroke-linecap: square"/>
   </g>
   <g id="patch_5">
    <path d="M 275.45601 253.521635 
L 275.45601 19.92024 
" style="fill: none; stroke: #000000; stroke-width: 0.8; stroke-linejoin: miter; stroke-linecap: square"/>
   </g>
   <g id="patch_6">
    <path d="M 43.88774 253.521635 
L 275.45601 253.521635 
" style="fill: none; stroke: #000000; stroke-width: 0.8; stroke-linejoin: miter; stroke-linecap: square"/>
   </g>
   <g id="patch_7">
    <path d="M 43.88774 19.92024 
L 275.45601 19.92024 
" style="fill: none; stroke: #000000; stroke-width: 0.8; stroke-linejoin: miter; stroke-linecap: square"/>
   </g>
   <g id="text_17">
    <!-- (a) ${q_1 &lt; 100 m^3/s \cap q_2 &lt; 50 m^3/s}$ -->
    <g transform="translate(67.331875 13.92024) scale(0.12 -0.12)">
     <defs>
      <path id="DejaVuSans-61" d="M 2194 1759 
Q 1497 1759 1228 1600 
Q 959 1441 959 1056 
Q 959 750 1161 570 
Q 1363 391 1709 391 
Q 2188 391 2477 730 
Q 2766 1069 2766 1631 
L 2766 1759 
L 2194 1759 
z
M 3341 1997 
L 3341 0 
L 2766 0 
L 2766 531 
Q 2569 213 2275 61 
Q 1981 -91 1556 -91 
Q 1019 -91 701 211 
Q 384 513 384 1019 
Q 384 1609 779 1909 
Q 1175 2209 1959 2209 
L 2766 2209 
L 2766 2266 
Q 2766 2663 2505 2880 
Q 2244 3097 1772 3097 
Q 1472 3097 1187 3025 
Q 903 2953 641 2809 
L 641 3341 
Q 956 3463 1253 3523 
Q 1550 3584 1831 3584 
Q 2591 3584 2966 3190 
Q 3341 2797 3341 1997 
z
" transform="scale(0.015625)"/>
      <path id="DejaVuSans-20" transform="scale(0.015625)"/>
      <path id="DejaVuSans-Oblique-71" d="M 2669 525 
Q 2438 222 2123 65 
Q 1809 -91 1428 -91 
Q 897 -91 595 267 
Q 294 625 294 1253 
Q 294 1759 480 2231 
Q 666 2703 1013 3078 
Q 1238 3322 1530 3453 
Q 1822 3584 2144 3584 
Q 2531 3584 2781 3431 
Q 3031 3278 3144 2969 
L 3244 3494 
L 3822 3494 
L 2888 -1319 
L 2309 -1319 
L 2669 525 
z
M 891 1338 
Q 891 875 1084 633 
Q 1278 391 1644 391 
Q 2188 391 2572 911 
Q 2956 1431 2956 2175 
Q 2956 2625 2757 2864 
Q 2559 3103 2188 3103 
Q 1916 3103 1684 2976 
Q 1453 2850 1281 2606 
Q 1100 2350 995 2006 
Q 891 1663 891 1338 
z
" transform="scale(0.015625)"/>
      <path id="DejaVuSans-3c" d="M 4684 3150 
L 1459 2003 
L 4684 863 
L 4684 294 
L 678 1747 
L 678 2266 
L 4684 3719 
L 4684 3150 
z
" transform="scale(0.015625)"/>
      <path id="DejaVuSans-2229" d="M 825 1850 
Q 825 2775 1208 3240 
Q 1591 3706 2344 3706 
Q 3094 3706 3476 3240 
Q 3859 2775 3859 1850 
L 3859 0 
L 3322 0 
L 3322 1772 
Q 3322 2534 3090 2864 
Q 2859 3194 2344 3194 
Q 1825 3194 1594 2864 
Q 1363 2534 1363 1772 
L 1363 0 
L 825 0 
L 825 1850 
z
" transform="scale(0.015625)"/>
     </defs>
     <use xlink:href="#DejaVuSans-28" transform="translate(0 0.765625)"/>
     <use xlink:href="#DejaVuSans-61" transform="translate(39.013672 0.765625)"/>
     <use xlink:href="#DejaVuSans-29" transform="translate(100.292969 0.765625)"/>
     <use xlink:href="#DejaVuSans-20" transform="translate(139.306641 0.765625)"/>
     <use xlink:href="#DejaVuSans-Oblique-71" transform="translate(171.09375 0.765625)"/>
     <use xlink:href="#DejaVuSans-31" transform="translate(234.570312 -15.640625) scale(0.7)"/>
     <use xlink:href="#DejaVuSans-3c" transform="translate(301.323242 0.765625)"/>
     <use xlink:href="#DejaVuSans-31" transform="translate(404.594727 0.765625)"/>
     <use xlink:href="#DejaVuSans-30" transform="translate(468.217773 0.765625)"/>
     <use xlink:href="#DejaVuSans-30" transform="translate(531.84082 0.765625)"/>
     <use xlink:href="#DejaVuSans-Oblique-6d" transform="translate(595.463867 0.765625)"/>
     <use xlink:href="#DejaVuSans-33" transform="translate(697.525872 39.046875) scale(0.7)"/>
     <use xlink:href="#DejaVuSans-2f" transform="translate(744.79638 0.765625)"/>
     <use xlink:href="#DejaVuSans-Oblique-73" transform="translate(778.487786 0.765625)"/>
     <use xlink:href="#DejaVuSans-2229" transform="translate(850.069818 0.765625)"/>
     <use xlink:href="#DejaVuSans-Oblique-71" transform="translate(942.745599 0.765625)"/>
     <use xlink:href="#DejaVuSans-32" transform="translate(1006.222161 -15.640625) scale(0.7)"/>
     <use xlink:href="#DejaVuSans-3c" transform="translate(1072.975091 0.765625)"/>
     <use xlink:href="#DejaVuSans-35" transform="translate(1176.246576 0.765625)"/>
     <use xlink:href="#DejaVuSans-30" transform="translate(1239.869622 0.765625)"/>
     <use xlink:href="#DejaVuSans-Oblique-6d" transform="translate(1303.492669 0.765625)"/>
     <use xlink:href="#DejaVuSans-33" transform="translate(1405.554674 39.046875) scale(0.7)"/>
     <use xlink:href="#DejaVuSans-2f" transform="translate(1452.825182 0.765625)"/>
     <use xlink:href="#DejaVuSans-Oblique-73" transform="translate(1486.516589 0.765625)"/>
    </g>
   </g>
  </g>
 </g>
 <defs>
  <clipPath id="p2c98dae4e2">
   <rect x="43.88774" y="19.92024" width="231.56827" height="233.601395"/>
  </clipPath>
 </defs>
</svg>
