<?xml version="1.0" encoding="utf-8" standalone="no"?>
<!DOCTYPE svg PUBLIC "-//W3C//DTD SVG 1.1//EN"
  "http://www.w3.org/Graphics/SVG/1.1/DTD/svg11.dtd">
<svg xmlns:xlink="http://www.w3.org/1999/xlink" width="576pt" height="288pt" viewBox="0 0 576 288" xmlns="http://www.w3.org/2000/svg" version="1.1">
 <metadata>
  <rdf:RDF xmlns:dc="http://purl.org/dc/elements/1.1/" xmlns:cc="http://creativecommons.org/ns#" xmlns:rdf="http://www.w3.org/1999/02/22-rdf-syntax-ns#">
   <cc:Work>
    <dc:type rdf:resource="http://purl.org/dc/dcmitype/StillImage"/>
    <dc:date>2024-10-19T07:03:40.270897</dc:date>
    <dc:format>image/svg+xml</dc:format>
    <dc:creator>
     <cc:Agent>
      <dc:title>Matplotlib v3.9.2, https://matplotlib.org/</dc:title>
     </cc:Agent>
    </dc:creator>
   </cc:Work>
  </rdf:RDF>
 </metadata>
 <defs>
  <style type="text/css">*{stroke-linejoin: round; stroke-linecap: butt}</style>
 </defs>
 <g id="figure_1">
  <g id="patch_1">
   <path d="M 0 288 
L 576 288 
L 576 0 
L 0 0 
z
" style="fill: #ffffff"/>
  </g>
  <g id="axes_1">
   <g id="patch_2">
    <path d="M 43.88774 253.521635 
L 275.45601 253.521635 
L 275.45601 19.92024 
L 43.88774 19.92024 
z
" style="fill: #ffffff"/>
   </g>
   <g id="PathCollection_1">
    <defs>
     <path id="m945a296e1c" d="M 0 3 
C 0.795609 3 1.55874 2.683901 2.12132 2.12132 
C 2.683901 1.55874 3 0.795609 3 0 
C 3 -0.795609 2.683901 -1.55874 2.12132 -2.12132 
C 1.55874 -2.683901 0.795609 -3 0 -3 
C -0.795609 -3 -1.55874 -2.683901 -2.12132 -2.12132 
C -2.683901 -1.55874 -3 -0.795609 -3 0 
C -3 0.795609 -2.683901 1.55874 -2.12132 2.12132 
C -1.55874 2.683901 -0.795609 3 0 3 
z
" style="stroke: #1f77b4"/>
    </defs>
    <g clip-path="url(#pa0d3a43f97)">
     <use xlink:href="#m945a296e1c" x="140.591276" y="187.743646" style="fill: #1f77b4; stroke: #1f77b4"/>
     <use xlink:href="#m945a296e1c" x="185.472817" y="150.885352" style="fill: #1f77b4; stroke: #1f77b4"/>
     <use xlink:href="#m945a296e1c" x="115.684039" y="198.1474" style="fill: #1f77b4; stroke: #1f77b4"/>
     <use xlink:href="#m945a296e1c" x="203.08616" y="135.679613" style="fill: #1f77b4; stroke: #1f77b4"/>
     <use xlink:href="#m945a296e1c" x="187.16271" y="126.41183" style="fill: #1f77b4; stroke: #1f77b4"/>
     <use xlink:href="#m945a296e1c" x="155.784049" y="179.320918" style="fill: #1f77b4; stroke: #1f77b4"/>
     <use xlink:href="#m945a296e1c" x="140.239532" y="179.296688" style="fill: #1f77b4; stroke: #1f77b4"/>
     <use xlink:href="#m945a296e1c" x="186.200901" y="180.681018" style="fill: #1f77b4; stroke: #1f77b4"/>
     <use xlink:href="#m945a296e1c" x="119.723243" y="177.054824" style="fill: #1f77b4; stroke: #1f77b4"/>
     <use xlink:href="#m945a296e1c" x="238.255671" y="58.301636" style="fill: #1f77b4; stroke: #1f77b4"/>
     <use xlink:href="#m945a296e1c" x="225.124745" y="50.480762" style="fill: #1f77b4; stroke: #1f77b4"/>
     <use xlink:href="#m945a296e1c" x="201.224815" y="116.715626" style="fill: #1f77b4; stroke: #1f77b4"/>
     <use xlink:href="#m945a296e1c" x="97.360814" y="194.788105" style="fill: #1f77b4; stroke: #1f77b4"/>
     <use xlink:href="#m945a296e1c" x="147.091139" y="199.550195" style="fill: #1f77b4; stroke: #1f77b4"/>
     <use xlink:href="#m945a296e1c" x="130.552943" y="180.072709" style="fill: #1f77b4; stroke: #1f77b4"/>
     <use xlink:href="#m945a296e1c" x="160.962018" y="154.955913" style="fill: #1f77b4; stroke: #1f77b4"/>
     <use xlink:href="#m945a296e1c" x="101.432609" y="180.152197" style="fill: #1f77b4; stroke: #1f77b4"/>
     <use xlink:href="#m945a296e1c" x="99.21" y="165.247841" style="fill: #1f77b4; stroke: #1f77b4"/>
     <use xlink:href="#m945a296e1c" x="96.317978" y="214.020481" style="fill: #1f77b4; stroke: #1f77b4"/>
     <use xlink:href="#m945a296e1c" x="174.166656" y="149.547831" style="fill: #1f77b4; stroke: #1f77b4"/>
     <use xlink:href="#m945a296e1c" x="256.376792" y="157.305889" style="fill: #1f77b4; stroke: #1f77b4"/>
     <use xlink:href="#m945a296e1c" x="113.346096" y="177.440322" style="fill: #1f77b4; stroke: #1f77b4"/>
     <use xlink:href="#m945a296e1c" x="151.500979" y="140.861957" style="fill: #1f77b4; stroke: #1f77b4"/>
     <use xlink:href="#m945a296e1c" x="101.110952" y="215.070164" style="fill: #1f77b4; stroke: #1f77b4"/>
     <use xlink:href="#m945a296e1c" x="94.652431" y="197.65575" style="fill: #1f77b4; stroke: #1f77b4"/>
     <use xlink:href="#m945a296e1c" x="131.947975" y="192.490272" style="fill: #1f77b4; stroke: #1f77b4"/>
     <use xlink:href="#m945a296e1c" x="81.239592" y="181.170804" style="fill: #1f77b4; stroke: #1f77b4"/>
     <use xlink:href="#m945a296e1c" x="136.249318" y="180.642263" style="fill: #1f77b4; stroke: #1f77b4"/>
     <use xlink:href="#m945a296e1c" x="115.30086" y="170.578218" style="fill: #1f77b4; stroke: #1f77b4"/>
     <use xlink:href="#m945a296e1c" x="100.034798" y="196.437648" style="fill: #1f77b4; stroke: #1f77b4"/>
     <use xlink:href="#m945a296e1c" x="253.800466" y="4.735449" style="fill: #1f77b4; stroke: #1f77b4"/>
     <use xlink:href="#m945a296e1c" x="127.218406" y="203.546062" style="fill: #1f77b4; stroke: #1f77b4"/>
     <use xlink:href="#m945a296e1c" x="74.78647" y="212.887682" style="fill: #1f77b4; stroke: #1f77b4"/>
     <use xlink:href="#m945a296e1c" x="249.490256" y="104.957045" style="fill: #1f77b4; stroke: #1f77b4"/>
     <use xlink:href="#m945a296e1c" x="137.123776" y="191.802232" style="fill: #1f77b4; stroke: #1f77b4"/>
    </g>
   </g>
   <g id="matplotlib.axis_1">
    <g id="xtick_1">
     <g id="line2d_1">
      <path d="M 43.88774 253.521635 
L 43.88774 19.92024 
" clip-path="url(#pa0d3a43f97)" style="fill: none; stroke: #b0b0b0; stroke-width: 0.8; stroke-linecap: square"/>
     </g>
     <g id="line2d_2">
      <defs>
       <path id="meb726e007d" d="M 0 0 
L 0 3.5 
" style="stroke: #000000; stroke-width: 0.8"/>
      </defs>
      <g>
       <use xlink:href="#meb726e007d" x="43.88774" y="253.521635" style="stroke: #000000; stroke-width: 0.8"/>
      </g>
     </g>
     <g id="text_1">
      <!-- 0 -->
      <g transform="translate(40.70649 268.120072) scale(0.1 -0.1)">
       <defs>
        <path id="DejaVuSans-30" d="M 2034 4250 
Q 1547 4250 1301 3770 
Q 1056 3291 1056 2328 
Q 1056 1369 1301 889 
Q 1547 409 2034 409 
Q 2525 409 2770 889 
Q 3016 1369 3016 2328 
Q 3016 3291 2770 3770 
Q 2525 4250 2034 4250 
z
M 2034 4750 
Q 2819 4750 3233 4129 
Q 3647 3509 3647 2328 
Q 3647 1150 3233 529 
Q 2819 -91 2034 -91 
Q 1250 -91 836 529 
Q 422 1150 422 2328 
Q 422 3509 836 4129 
Q 1250 4750 2034 4750 
z
" transform="scale(0.015625)"/>
       </defs>
       <use xlink:href="#DejaVuSans-30"/>
      </g>
     </g>
    </g>
    <g id="xtick_2">
     <g id="line2d_3">
      <path d="M 101.779808 253.521635 
L 101.779808 19.92024 
" clip-path="url(#pa0d3a43f97)" style="fill: none; stroke: #b0b0b0; stroke-width: 0.8; stroke-linecap: square"/>
     </g>
     <g id="line2d_4">
      <g>
       <use xlink:href="#meb726e007d" x="101.779808" y="253.521635" style="stroke: #000000; stroke-width: 0.8"/>
      </g>
     </g>
     <g id="text_2">
      <!-- 50 -->
      <g transform="translate(95.417308 268.120072) scale(0.1 -0.1)">
       <defs>
        <path id="DejaVuSans-35" d="M 691 4666 
L 3169 4666 
L 3169 4134 
L 1269 4134 
L 1269 2991 
Q 1406 3038 1543 3061 
Q 1681 3084 1819 3084 
Q 2600 3084 3056 2656 
Q 3513 2228 3513 1497 
Q 3513 744 3044 326 
Q 2575 -91 1722 -91 
Q 1428 -91 1123 -41 
Q 819 9 494 109 
L 494 744 
Q 775 591 1075 516 
Q 1375 441 1709 441 
Q 2250 441 2565 725 
Q 2881 1009 2881 1497 
Q 2881 1984 2565 2268 
Q 2250 2553 1709 2553 
Q 1456 2553 1204 2497 
Q 953 2441 691 2322 
L 691 4666 
z
" transform="scale(0.015625)"/>
       </defs>
       <use xlink:href="#DejaVuSans-35"/>
       <use xlink:href="#DejaVuSans-30" x="63.623047"/>
      </g>
     </g>
    </g>
    <g id="xtick_3">
     <g id="line2d_5">
      <path d="M 159.671875 253.521635 
L 159.671875 19.92024 
" clip-path="url(#pa0d3a43f97)" style="fill: none; stroke: #b0b0b0; stroke-width: 0.8; stroke-linecap: square"/>
     </g>
     <g id="line2d_6">
      <g>
       <use xlink:href="#meb726e007d" x="159.671875" y="253.521635" style="stroke: #000000; stroke-width: 0.8"/>
      </g>
     </g>
     <g id="text_3">
      <!-- 100 -->
      <g transform="translate(150.128125 268.120072) scale(0.1 -0.1)">
       <defs>
        <path id="DejaVuSans-31" d="M 794 531 
L 1825 531 
L 1825 4091 
L 703 3866 
L 703 4441 
L 1819 4666 
L 2450 4666 
L 2450 531 
L 3481 531 
L 3481 0 
L 794 0 
L 794 531 
z
" transform="scale(0.015625)"/>
       </defs>
       <use xlink:href="#DejaVuSans-31"/>
       <use xlink:href="#DejaVuSans-30" x="63.623047"/>
       <use xlink:href="#DejaVuSans-30" x="127.246094"/>
      </g>
     </g>
    </g>
    <g id="xtick_4">
     <g id="line2d_7">
      <path d="M 217.563943 253.521635 
L 217.563943 19.92024 
" clip-path="url(#pa0d3a43f97)" style="fill: none; stroke: #b0b0b0; stroke-width: 0.8; stroke-linecap: square"/>
     </g>
     <g id="line2d_8">
      <g>
       <use xlink:href="#meb726e007d" x="217.563943" y="253.521635" style="stroke: #000000; stroke-width: 0.8"/>
      </g>
     </g>
     <g id="text_4">
      <!-- 150 -->
      <g transform="translate(208.020193 268.120072) scale(0.1 -0.1)">
       <use xlink:href="#DejaVuSans-31"/>
       <use xlink:href="#DejaVuSans-35" x="63.623047"/>
       <use xlink:href="#DejaVuSans-30" x="127.246094"/>
      </g>
     </g>
    </g>
    <g id="xtick_5">
     <g id="line2d_9">
      <path d="M 275.45601 253.521635 
L 275.45601 19.92024 
" clip-path="url(#pa0d3a43f97)" style="fill: none; stroke: #b0b0b0; stroke-width: 0.8; stroke-linecap: square"/>
     </g>
     <g id="line2d_10">
      <g>
       <use xlink:href="#meb726e007d" x="275.45601" y="253.521635" style="stroke: #000000; stroke-width: 0.8"/>
      </g>
     </g>
     <g id="text_5">
      <!-- 200 -->
      <g transform="translate(265.91226 268.120072) scale(0.1 -0.1)">
       <defs>
        <path id="DejaVuSans-32" d="M 1228 531 
L 3431 531 
L 3431 0 
L 469 0 
L 469 531 
Q 828 903 1448 1529 
Q 2069 2156 2228 2338 
Q 2531 2678 2651 2914 
Q 2772 3150 2772 3378 
Q 2772 3750 2511 3984 
Q 2250 4219 1831 4219 
Q 1534 4219 1204 4116 
Q 875 4013 500 3803 
L 500 4441 
Q 881 4594 1212 4672 
Q 1544 4750 1819 4750 
Q 2544 4750 2975 4387 
Q 3406 4025 3406 3419 
Q 3406 3131 3298 2873 
Q 3191 2616 2906 2266 
Q 2828 2175 2409 1742 
Q 1991 1309 1228 531 
z
" transform="scale(0.015625)"/>
       </defs>
       <use xlink:href="#DejaVuSans-32"/>
       <use xlink:href="#DejaVuSans-30" x="63.623047"/>
       <use xlink:href="#DejaVuSans-30" x="127.246094"/>
      </g>
     </g>
    </g>
    <g id="text_6">
     <!-- ${Q_1 (m^3/s)}$ -->
     <g transform="translate(137.671875 282.920073) scale(0.1 -0.1)">
      <defs>
       <path id="DejaVuSans-Oblique-51" d="M 2309 -84 
Q 2275 -88 2237 -89 
Q 2200 -91 2125 -91 
Q 1250 -91 756 411 
Q 263 913 263 1797 
Q 263 2319 452 2844 
Q 641 3369 978 3788 
Q 1369 4269 1858 4509 
Q 2347 4750 2938 4750 
Q 3794 4750 4287 4245 
Q 4781 3741 4781 2869 
Q 4781 1928 4265 1147 
Q 3750 366 2919 44 
L 3553 -825 
L 2847 -825 
L 2309 -84 
z
M 2919 4238 
Q 2400 4238 2003 3986 
Q 1606 3734 1313 3219 
Q 1125 2891 1026 2522 
Q 928 2153 928 1778 
Q 928 1128 1239 775 
Q 1550 422 2119 422 
Q 2631 422 3032 676 
Q 3434 931 3719 1434 
Q 3909 1772 4009 2142 
Q 4109 2513 4109 2881 
Q 4109 3528 3796 3883 
Q 3484 4238 2919 4238 
z
" transform="scale(0.015625)"/>
       <path id="DejaVuSans-28" d="M 1984 4856 
Q 1566 4138 1362 3434 
Q 1159 2731 1159 2009 
Q 1159 1288 1364 580 
Q 1569 -128 1984 -844 
L 1484 -844 
Q 1016 -109 783 600 
Q 550 1309 550 2009 
Q 550 2706 781 3412 
Q 1013 4119 1484 4856 
L 1984 4856 
z
" transform="scale(0.015625)"/>
       <path id="DejaVuSans-Oblique-6d" d="M 5747 2113 
L 5338 0 
L 4763 0 
L 5166 2094 
Q 5191 2228 5203 2325 
Q 5216 2422 5216 2491 
Q 5216 2772 5059 2928 
Q 4903 3084 4622 3084 
Q 4203 3084 3875 2770 
Q 3547 2456 3450 1953 
L 3066 0 
L 2491 0 
L 2900 2094 
Q 2925 2209 2937 2307 
Q 2950 2406 2950 2484 
Q 2950 2769 2794 2926 
Q 2638 3084 2363 3084 
Q 1938 3084 1609 2770 
Q 1281 2456 1184 1953 
L 800 0 
L 225 0 
L 909 3500 
L 1484 3500 
L 1375 2956 
Q 1609 3263 1923 3423 
Q 2238 3584 2597 3584 
Q 2978 3584 3223 3384 
Q 3469 3184 3519 2828 
Q 3781 3197 4126 3390 
Q 4472 3584 4856 3584 
Q 5306 3584 5551 3325 
Q 5797 3066 5797 2591 
Q 5797 2488 5784 2364 
Q 5772 2241 5747 2113 
z
" transform="scale(0.015625)"/>
       <path id="DejaVuSans-33" d="M 2597 2516 
Q 3050 2419 3304 2112 
Q 3559 1806 3559 1356 
Q 3559 666 3084 287 
Q 2609 -91 1734 -91 
Q 1441 -91 1130 -33 
Q 819 25 488 141 
L 488 750 
Q 750 597 1062 519 
Q 1375 441 1716 441 
Q 2309 441 2620 675 
Q 2931 909 2931 1356 
Q 2931 1769 2642 2001 
Q 2353 2234 1838 2234 
L 1294 2234 
L 1294 2753 
L 1863 2753 
Q 2328 2753 2575 2939 
Q 2822 3125 2822 3475 
Q 2822 3834 2567 4026 
Q 2313 4219 1838 4219 
Q 1578 4219 1281 4162 
Q 984 4106 628 3988 
L 628 4550 
Q 988 4650 1302 4700 
Q 1616 4750 1894 4750 
Q 2613 4750 3031 4423 
Q 3450 4097 3450 3541 
Q 3450 3153 3228 2886 
Q 3006 2619 2597 2516 
z
" transform="scale(0.015625)"/>
       <path id="DejaVuSans-2f" d="M 1625 4666 
L 2156 4666 
L 531 -594 
L 0 -594 
L 1625 4666 
z
" transform="scale(0.015625)"/>
       <path id="DejaVuSans-Oblique-73" d="M 3200 3397 
L 3091 2853 
Q 2863 2978 2609 3040 
Q 2356 3103 2088 3103 
Q 1634 3103 1373 2948 
Q 1113 2794 1113 2528 
Q 1113 2219 1719 2053 
Q 1766 2041 1788 2034 
L 1972 1978 
Q 2547 1819 2739 1644 
Q 2931 1469 2931 1166 
Q 2931 609 2489 259 
Q 2047 -91 1331 -91 
Q 1053 -91 747 -37 
Q 441 16 72 128 
L 184 722 
Q 500 559 806 475 
Q 1113 391 1394 391 
Q 1816 391 2080 572 
Q 2344 753 2344 1031 
Q 2344 1331 1650 1516 
L 1591 1531 
L 1394 1581 
Q 956 1697 753 1886 
Q 550 2075 550 2369 
Q 550 2928 970 3256 
Q 1391 3584 2113 3584 
Q 2397 3584 2667 3537 
Q 2938 3491 3200 3397 
z
" transform="scale(0.015625)"/>
       <path id="DejaVuSans-29" d="M 513 4856 
L 1013 4856 
Q 1481 4119 1714 3412 
Q 1947 2706 1947 2009 
Q 1947 1309 1714 600 
Q 1481 -109 1013 -844 
L 513 -844 
Q 928 -128 1133 580 
Q 1338 1288 1338 2009 
Q 1338 2731 1133 3434 
Q 928 4138 513 4856 
z
" transform="scale(0.015625)"/>
      </defs>
      <use xlink:href="#DejaVuSans-Oblique-51" transform="translate(0 0.765625)"/>
      <use xlink:href="#DejaVuSans-31" transform="translate(78.710938 -15.640625) scale(0.7)"/>
      <use xlink:href="#DejaVuSans-28" transform="translate(125.981445 0.765625)"/>
      <use xlink:href="#DejaVuSans-Oblique-6d" transform="translate(164.995117 0.765625)"/>
      <use xlink:href="#DejaVuSans-33" transform="translate(267.057122 39.046875) scale(0.7)"/>
      <use xlink:href="#DejaVuSans-2f" transform="translate(314.32763 0.765625)"/>
      <use xlink:href="#DejaVuSans-Oblique-73" transform="translate(348.019036 0.765625)"/>
      <use xlink:href="#DejaVuSans-29" transform="translate(400.118646 0.765625)"/>
     </g>
    </g>
   </g>
   <g id="matplotlib.axis_2">
    <g id="ytick_1">
     <g id="line2d_11">
      <path d="M 43.88774 253.521635 
L 275.45601 253.521635 
" clip-path="url(#pa0d3a43f97)" style="fill: none; stroke: #b0b0b0; stroke-width: 0.8; stroke-linecap: square"/>
     </g>
     <g id="line2d_12">
      <defs>
       <path id="mf2223920f0" d="M 0 0 
L -3.5 0 
" style="stroke: #000000; stroke-width: 0.8"/>
      </defs>
      <g>
       <use xlink:href="#mf2223920f0" x="43.88774" y="253.521635" style="stroke: #000000; stroke-width: 0.8"/>
      </g>
     </g>
     <g id="text_7">
      <!-- 0 -->
      <g transform="translate(30.52524 257.320854) scale(0.1 -0.1)">
       <use xlink:href="#DejaVuSans-30"/>
      </g>
     </g>
    </g>
    <g id="ytick_2">
     <g id="line2d_13">
      <path d="M 43.88774 224.321461 
L 275.45601 224.321461 
" clip-path="url(#pa0d3a43f97)" style="fill: none; stroke: #b0b0b0; stroke-width: 0.8; stroke-linecap: square"/>
     </g>
     <g id="line2d_14">
      <g>
       <use xlink:href="#mf2223920f0" x="43.88774" y="224.321461" style="stroke: #000000; stroke-width: 0.8"/>
      </g>
     </g>
     <g id="text_8">
      <!-- 25 -->
      <g transform="translate(24.16274 228.120679) scale(0.1 -0.1)">
       <use xlink:href="#DejaVuSans-32"/>
       <use xlink:href="#DejaVuSans-35" x="63.623047"/>
      </g>
     </g>
    </g>
    <g id="ytick_3">
     <g id="line2d_15">
      <path d="M 43.88774 195.121286 
L 275.45601 195.121286 
" clip-path="url(#pa0d3a43f97)" style="fill: none; stroke: #b0b0b0; stroke-width: 0.8; stroke-linecap: square"/>
     </g>
     <g id="line2d_16">
      <g>
       <use xlink:href="#mf2223920f0" x="43.88774" y="195.121286" style="stroke: #000000; stroke-width: 0.8"/>
      </g>
     </g>
     <g id="text_9">
      <!-- 50 -->
      <g transform="translate(24.16274 198.920505) scale(0.1 -0.1)">
       <use xlink:href="#DejaVuSans-35"/>
       <use xlink:href="#DejaVuSans-30" x="63.623047"/>
      </g>
     </g>
    </g>
    <g id="ytick_4">
     <g id="line2d_17">
      <path d="M 43.88774 165.921112 
L 275.45601 165.921112 
" clip-path="url(#pa0d3a43f97)" style="fill: none; stroke: #b0b0b0; stroke-width: 0.8; stroke-linecap: square"/>
     </g>
     <g id="line2d_18">
      <g>
       <use xlink:href="#mf2223920f0" x="43.88774" y="165.921112" style="stroke: #000000; stroke-width: 0.8"/>
      </g>
     </g>
     <g id="text_10">
      <!-- 75 -->
      <g transform="translate(24.16274 169.720331) scale(0.1 -0.1)">
       <defs>
        <path id="DejaVuSans-37" d="M 525 4666 
L 3525 4666 
L 3525 4397 
L 1831 0 
L 1172 0 
L 2766 4134 
L 525 4134 
L 525 4666 
z
" transform="scale(0.015625)"/>
       </defs>
       <use xlink:href="#DejaVuSans-37"/>
       <use xlink:href="#DejaVuSans-35" x="63.623047"/>
      </g>
     </g>
    </g>
    <g id="ytick_5">
     <g id="line2d_19">
      <path d="M 43.88774 136.720937 
L 275.45601 136.720937 
" clip-path="url(#pa0d3a43f97)" style="fill: none; stroke: #b0b0b0; stroke-width: 0.8; stroke-linecap: square"/>
     </g>
     <g id="line2d_20">
      <g>
       <use xlink:href="#mf2223920f0" x="43.88774" y="136.720937" style="stroke: #000000; stroke-width: 0.8"/>
      </g>
     </g>
     <g id="text_11">
      <!-- 100 -->
      <g transform="translate(17.80024 140.520156) scale(0.1 -0.1)">
       <use xlink:href="#DejaVuSans-31"/>
       <use xlink:href="#DejaVuSans-30" x="63.623047"/>
       <use xlink:href="#DejaVuSans-30" x="127.246094"/>
      </g>
     </g>
    </g>
    <g id="ytick_6">
     <g id="line2d_21">
      <path d="M 43.88774 107.520763 
L 275.45601 107.520763 
" clip-path="url(#pa0d3a43f97)" style="fill: none; stroke: #b0b0b0; stroke-width: 0.8; stroke-linecap: square"/>
     </g>
     <g id="line2d_22">
      <g>
       <use xlink:href="#mf2223920f0" x="43.88774" y="107.520763" style="stroke: #000000; stroke-width: 0.8"/>
      </g>
     </g>
     <g id="text_12">
      <!-- 125 -->
      <g transform="translate(17.80024 111.319982) scale(0.1 -0.1)">
       <use xlink:href="#DejaVuSans-31"/>
       <use xlink:href="#DejaVuSans-32" x="63.623047"/>
       <use xlink:href="#DejaVuSans-35" x="127.246094"/>
      </g>
     </g>
    </g>
    <g id="ytick_7">
     <g id="line2d_23">
      <path d="M 43.88774 78.320589 
L 275.45601 78.320589 
" clip-path="url(#pa0d3a43f97)" style="fill: none; stroke: #b0b0b0; stroke-width: 0.8; stroke-linecap: square"/>
     </g>
     <g id="line2d_24">
      <g>
       <use xlink:href="#mf2223920f0" x="43.88774" y="78.320589" style="stroke: #000000; stroke-width: 0.8"/>
      </g>
     </g>
     <g id="text_13">
      <!-- 150 -->
      <g transform="translate(17.80024 82.119807) scale(0.1 -0.1)">
       <use xlink:href="#DejaVuSans-31"/>
       <use xlink:href="#DejaVuSans-35" x="63.623047"/>
       <use xlink:href="#DejaVuSans-30" x="127.246094"/>
      </g>
     </g>
    </g>
    <g id="ytick_8">
     <g id="line2d_25">
      <path d="M 43.88774 49.120414 
L 275.45601 49.120414 
" clip-path="url(#pa0d3a43f97)" style="fill: none; stroke: #b0b0b0; stroke-width: 0.8; stroke-linecap: square"/>
     </g>
     <g id="line2d_26">
      <g>
       <use xlink:href="#mf2223920f0" x="43.88774" y="49.120414" style="stroke: #000000; stroke-width: 0.8"/>
      </g>
     </g>
     <g id="text_14">
      <!-- 175 -->
      <g transform="translate(17.80024 52.919633) scale(0.1 -0.1)">
       <use xlink:href="#DejaVuSans-31"/>
       <use xlink:href="#DejaVuSans-37" x="63.623047"/>
       <use xlink:href="#DejaVuSans-35" x="127.246094"/>
      </g>
     </g>
    </g>
    <g id="ytick_9">
     <g id="line2d_27">
      <path d="M 43.88774 19.92024 
L 275.45601 19.92024 
" clip-path="url(#pa0d3a43f97)" style="fill: none; stroke: #b0b0b0; stroke-width: 0.8; stroke-linecap: square"/>
     </g>
     <g id="line2d_28">
      <g>
       <use xlink:href="#mf2223920f0" x="43.88774" y="19.92024" style="stroke: #000000; stroke-width: 0.8"/>
      </g>
     </g>
     <g id="text_15">
      <!-- 200 -->
      <g transform="translate(17.80024 23.719459) scale(0.1 -0.1)">
       <use xlink:href="#DejaVuSans-32"/>
       <use xlink:href="#DejaVuSans-30" x="63.623047"/>
       <use xlink:href="#DejaVuSans-30" x="127.246094"/>
      </g>
     </g>
    </g>
    <g id="text_16">
     <!-- ${Q_2 (m^3/s)}$ -->
     <g transform="translate(11.720552 158.720937) rotate(-90) scale(0.1 -0.1)">
      <use xlink:href="#DejaVuSans-Oblique-51" transform="translate(0 0.765625)"/>
      <use xlink:href="#DejaVuSans-32" transform="translate(78.710938 -15.640625) scale(0.7)"/>
      <use xlink:href="#DejaVuSans-28" transform="translate(125.981445 0.765625)"/>
      <use xlink:href="#DejaVuSans-Oblique-6d" transform="translate(164.995117 0.765625)"/>
      <use xlink:href="#DejaVuSans-33" transform="translate(267.057122 39.046875) scale(0.7)"/>
      <use xlink:href="#DejaVuSans-2f" transform="translate(314.32763 0.765625)"/>
      <use xlink:href="#DejaVuSans-Oblique-73" transform="translate(348.019036 0.765625)"/>
      <use xlink:href="#DejaVuSans-29" transform="translate(400.118646 0.765625)"/>
     </g>
    </g>
   </g>
   <g id="patch_3">
    <path d="M 43.88774 253.521635 
L 43.88774 19.92024 
" style="fill: none; stroke: #000000; stroke-width: 0.8; stroke-linejoin: miter; stroke-linecap: square"/>
   </g>
   <g id="patch_4">
    <path d="M 275.45601 253.521635 
L 275.45601 19.92024 
" style="fill: none; stroke: #000000; stroke-width: 0.8; stroke-linejoin: miter; stroke-linecap: square"/>
   </g>
   <g id="patch_5">
    <path d="M 43.88774 253.521635 
L 275.45601 253.521635 
" style="fill: none; stroke: #000000; stroke-width: 0.8; stroke-linejoin: miter; stroke-linecap: square"/>
   </g>
   <g id="patch_6">
    <path d="M 43.88774 19.92024 
L 275.45601 19.92024 
" style="fill: none; stroke: #000000; stroke-width: 0.8; stroke-linejoin: miter; stroke-linecap: square"/>
   </g>
   <g id="text_17">
    <!-- (a) Samples of river discharge -->
    <g transform="translate(69.192813 13.92024) scale(0.12 -0.12)">
     <defs>
      <path id="DejaVuSans-61" d="M 2194 1759 
Q 1497 1759 1228 1600 
Q 959 1441 959 1056 
Q 959 750 1161 570 
Q 1363 391 1709 391 
Q 2188 391 2477 730 
Q 2766 1069 2766 1631 
L 2766 1759 
L 2194 1759 
z
M 3341 1997 
L 3341 0 
L 2766 0 
L 2766 531 
Q 2569 213 2275 61 
Q 1981 -91 1556 -91 
Q 1019 -91 701 211 
Q 384 513 384 1019 
Q 384 1609 779 1909 
Q 1175 2209 1959 2209 
L 2766 2209 
L 2766 2266 
Q 2766 2663 2505 2880 
Q 2244 3097 1772 3097 
Q 1472 3097 1187 3025 
Q 903 2953 641 2809 
L 641 3341 
Q 956 3463 1253 3523 
Q 1550 3584 1831 3584 
Q 2591 3584 2966 3190 
Q 3341 2797 3341 1997 
z
" transform="scale(0.015625)"/>
      <path id="DejaVuSans-20" transform="scale(0.015625)"/>
      <path id="DejaVuSans-53" d="M 3425 4513 
L 3425 3897 
Q 3066 4069 2747 4153 
Q 2428 4238 2131 4238 
Q 1616 4238 1336 4038 
Q 1056 3838 1056 3469 
Q 1056 3159 1242 3001 
Q 1428 2844 1947 2747 
L 2328 2669 
Q 3034 2534 3370 2195 
Q 3706 1856 3706 1288 
Q 3706 609 3251 259 
Q 2797 -91 1919 -91 
Q 1588 -91 1214 -16 
Q 841 59 441 206 
L 441 856 
Q 825 641 1194 531 
Q 1563 422 1919 422 
Q 2459 422 2753 634 
Q 3047 847 3047 1241 
Q 3047 1584 2836 1778 
Q 2625 1972 2144 2069 
L 1759 2144 
Q 1053 2284 737 2584 
Q 422 2884 422 3419 
Q 422 4038 858 4394 
Q 1294 4750 2059 4750 
Q 2388 4750 2728 4690 
Q 3069 4631 3425 4513 
z
" transform="scale(0.015625)"/>
      <path id="DejaVuSans-6d" d="M 3328 2828 
Q 3544 3216 3844 3400 
Q 4144 3584 4550 3584 
Q 5097 3584 5394 3201 
Q 5691 2819 5691 2113 
L 5691 0 
L 5113 0 
L 5113 2094 
Q 5113 2597 4934 2840 
Q 4756 3084 4391 3084 
Q 3944 3084 3684 2787 
Q 3425 2491 3425 1978 
L 3425 0 
L 2847 0 
L 2847 2094 
Q 2847 2600 2669 2842 
Q 2491 3084 2119 3084 
Q 1678 3084 1418 2786 
Q 1159 2488 1159 1978 
L 1159 0 
L 581 0 
L 581 3500 
L 1159 3500 
L 1159 2956 
Q 1356 3278 1631 3431 
Q 1906 3584 2284 3584 
Q 2666 3584 2933 3390 
Q 3200 3197 3328 2828 
z
" transform="scale(0.015625)"/>
      <path id="DejaVuSans-70" d="M 1159 525 
L 1159 -1331 
L 581 -1331 
L 581 3500 
L 1159 3500 
L 1159 2969 
Q 1341 3281 1617 3432 
Q 1894 3584 2278 3584 
Q 2916 3584 3314 3078 
Q 3713 2572 3713 1747 
Q 3713 922 3314 415 
Q 2916 -91 2278 -91 
Q 1894 -91 1617 61 
Q 1341 213 1159 525 
z
M 3116 1747 
Q 3116 2381 2855 2742 
Q 2594 3103 2138 3103 
Q 1681 3103 1420 2742 
Q 1159 2381 1159 1747 
Q 1159 1113 1420 752 
Q 1681 391 2138 391 
Q 2594 391 2855 752 
Q 3116 1113 3116 1747 
z
" transform="scale(0.015625)"/>
      <path id="DejaVuSans-6c" d="M 603 4863 
L 1178 4863 
L 1178 0 
L 603 0 
L 603 4863 
z
" transform="scale(0.015625)"/>
      <path id="DejaVuSans-65" d="M 3597 1894 
L 3597 1613 
L 953 1613 
Q 991 1019 1311 708 
Q 1631 397 2203 397 
Q 2534 397 2845 478 
Q 3156 559 3463 722 
L 3463 178 
Q 3153 47 2828 -22 
Q 2503 -91 2169 -91 
Q 1331 -91 842 396 
Q 353 884 353 1716 
Q 353 2575 817 3079 
Q 1281 3584 2069 3584 
Q 2775 3584 3186 3129 
Q 3597 2675 3597 1894 
z
M 3022 2063 
Q 3016 2534 2758 2815 
Q 2500 3097 2075 3097 
Q 1594 3097 1305 2825 
Q 1016 2553 972 2059 
L 3022 2063 
z
" transform="scale(0.015625)"/>
      <path id="DejaVuSans-73" d="M 2834 3397 
L 2834 2853 
Q 2591 2978 2328 3040 
Q 2066 3103 1784 3103 
Q 1356 3103 1142 2972 
Q 928 2841 928 2578 
Q 928 2378 1081 2264 
Q 1234 2150 1697 2047 
L 1894 2003 
Q 2506 1872 2764 1633 
Q 3022 1394 3022 966 
Q 3022 478 2636 193 
Q 2250 -91 1575 -91 
Q 1294 -91 989 -36 
Q 684 19 347 128 
L 347 722 
Q 666 556 975 473 
Q 1284 391 1588 391 
Q 1994 391 2212 530 
Q 2431 669 2431 922 
Q 2431 1156 2273 1281 
Q 2116 1406 1581 1522 
L 1381 1569 
Q 847 1681 609 1914 
Q 372 2147 372 2553 
Q 372 3047 722 3315 
Q 1072 3584 1716 3584 
Q 2034 3584 2315 3537 
Q 2597 3491 2834 3397 
z
" transform="scale(0.015625)"/>
      <path id="DejaVuSans-6f" d="M 1959 3097 
Q 1497 3097 1228 2736 
Q 959 2375 959 1747 
Q 959 1119 1226 758 
Q 1494 397 1959 397 
Q 2419 397 2687 759 
Q 2956 1122 2956 1747 
Q 2956 2369 2687 2733 
Q 2419 3097 1959 3097 
z
M 1959 3584 
Q 2709 3584 3137 3096 
Q 3566 2609 3566 1747 
Q 3566 888 3137 398 
Q 2709 -91 1959 -91 
Q 1206 -91 779 398 
Q 353 888 353 1747 
Q 353 2609 779 3096 
Q 1206 3584 1959 3584 
z
" transform="scale(0.015625)"/>
      <path id="DejaVuSans-66" d="M 2375 4863 
L 2375 4384 
L 1825 4384 
Q 1516 4384 1395 4259 
Q 1275 4134 1275 3809 
L 1275 3500 
L 2222 3500 
L 2222 3053 
L 1275 3053 
L 1275 0 
L 697 0 
L 697 3053 
L 147 3053 
L 147 3500 
L 697 3500 
L 697 3744 
Q 697 4328 969 4595 
Q 1241 4863 1831 4863 
L 2375 4863 
z
" transform="scale(0.015625)"/>
      <path id="DejaVuSans-72" d="M 2631 2963 
Q 2534 3019 2420 3045 
Q 2306 3072 2169 3072 
Q 1681 3072 1420 2755 
Q 1159 2438 1159 1844 
L 1159 0 
L 581 0 
L 581 3500 
L 1159 3500 
L 1159 2956 
Q 1341 3275 1631 3429 
Q 1922 3584 2338 3584 
Q 2397 3584 2469 3576 
Q 2541 3569 2628 3553 
L 2631 2963 
z
" transform="scale(0.015625)"/>
      <path id="DejaVuSans-69" d="M 603 3500 
L 1178 3500 
L 1178 0 
L 603 0 
L 603 3500 
z
M 603 4863 
L 1178 4863 
L 1178 4134 
L 603 4134 
L 603 4863 
z
" transform="scale(0.015625)"/>
      <path id="DejaVuSans-76" d="M 191 3500 
L 800 3500 
L 1894 563 
L 2988 3500 
L 3597 3500 
L 2284 0 
L 1503 0 
L 191 3500 
z
" transform="scale(0.015625)"/>
      <path id="DejaVuSans-64" d="M 2906 2969 
L 2906 4863 
L 3481 4863 
L 3481 0 
L 2906 0 
L 2906 525 
Q 2725 213 2448 61 
Q 2172 -91 1784 -91 
Q 1150 -91 751 415 
Q 353 922 353 1747 
Q 353 2572 751 3078 
Q 1150 3584 1784 3584 
Q 2172 3584 2448 3432 
Q 2725 3281 2906 2969 
z
M 947 1747 
Q 947 1113 1208 752 
Q 1469 391 1925 391 
Q 2381 391 2643 752 
Q 2906 1113 2906 1747 
Q 2906 2381 2643 2742 
Q 2381 3103 1925 3103 
Q 1469 3103 1208 2742 
Q 947 2381 947 1747 
z
" transform="scale(0.015625)"/>
      <path id="DejaVuSans-63" d="M 3122 3366 
L 3122 2828 
Q 2878 2963 2633 3030 
Q 2388 3097 2138 3097 
Q 1578 3097 1268 2742 
Q 959 2388 959 1747 
Q 959 1106 1268 751 
Q 1578 397 2138 397 
Q 2388 397 2633 464 
Q 2878 531 3122 666 
L 3122 134 
Q 2881 22 2623 -34 
Q 2366 -91 2075 -91 
Q 1284 -91 818 406 
Q 353 903 353 1747 
Q 353 2603 823 3093 
Q 1294 3584 2113 3584 
Q 2378 3584 2631 3529 
Q 2884 3475 3122 3366 
z
" transform="scale(0.015625)"/>
      <path id="DejaVuSans-68" d="M 3513 2113 
L 3513 0 
L 2938 0 
L 2938 2094 
Q 2938 2591 2744 2837 
Q 2550 3084 2163 3084 
Q 1697 3084 1428 2787 
Q 1159 2491 1159 1978 
L 1159 0 
L 581 0 
L 581 4863 
L 1159 4863 
L 1159 2956 
Q 1366 3272 1645 3428 
Q 1925 3584 2291 3584 
Q 2894 3584 3203 3211 
Q 3513 2838 3513 2113 
z
" transform="scale(0.015625)"/>
      <path id="DejaVuSans-67" d="M 2906 1791 
Q 2906 2416 2648 2759 
Q 2391 3103 1925 3103 
Q 1463 3103 1205 2759 
Q 947 2416 947 1791 
Q 947 1169 1205 825 
Q 1463 481 1925 481 
Q 2391 481 2648 825 
Q 2906 1169 2906 1791 
z
M 3481 434 
Q 3481 -459 3084 -895 
Q 2688 -1331 1869 -1331 
Q 1566 -1331 1297 -1286 
Q 1028 -1241 775 -1147 
L 775 -588 
Q 1028 -725 1275 -790 
Q 1522 -856 1778 -856 
Q 2344 -856 2625 -561 
Q 2906 -266 2906 331 
L 2906 616 
Q 2728 306 2450 153 
Q 2172 0 1784 0 
Q 1141 0 747 490 
Q 353 981 353 1791 
Q 353 2603 747 3093 
Q 1141 3584 1784 3584 
Q 2172 3584 2450 3431 
Q 2728 3278 2906 2969 
L 2906 3500 
L 3481 3500 
L 3481 434 
z
" transform="scale(0.015625)"/>
     </defs>
     <use xlink:href="#DejaVuSans-28"/>
     <use xlink:href="#DejaVuSans-61" x="39.013672"/>
     <use xlink:href="#DejaVuSans-29" x="100.292969"/>
     <use xlink:href="#DejaVuSans-20" x="139.306641"/>
     <use xlink:href="#DejaVuSans-53" x="171.09375"/>
     <use xlink:href="#DejaVuSans-61" x="234.570312"/>
     <use xlink:href="#DejaVuSans-6d" x="295.849609"/>
     <use xlink:href="#DejaVuSans-70" x="393.261719"/>
     <use xlink:href="#DejaVuSans-6c" x="456.738281"/>
     <use xlink:href="#DejaVuSans-65" x="484.521484"/>
     <use xlink:href="#DejaVuSans-73" x="546.044922"/>
     <use xlink:href="#DejaVuSans-20" x="598.144531"/>
     <use xlink:href="#DejaVuSans-6f" x="629.931641"/>
     <use xlink:href="#DejaVuSans-66" x="691.113281"/>
     <use xlink:href="#DejaVuSans-20" x="726.318359"/>
     <use xlink:href="#DejaVuSans-72" x="758.105469"/>
     <use xlink:href="#DejaVuSans-69" x="799.21875"/>
     <use xlink:href="#DejaVuSans-76" x="827.001953"/>
     <use xlink:href="#DejaVuSans-65" x="886.181641"/>
     <use xlink:href="#DejaVuSans-72" x="947.705078"/>
     <use xlink:href="#DejaVuSans-20" x="988.818359"/>
     <use xlink:href="#DejaVuSans-64" x="1020.605469"/>
     <use xlink:href="#DejaVuSans-69" x="1084.082031"/>
     <use xlink:href="#DejaVuSans-73" x="1111.865234"/>
     <use xlink:href="#DejaVuSans-63" x="1163.964844"/>
     <use xlink:href="#DejaVuSans-68" x="1218.945312"/>
     <use xlink:href="#DejaVuSans-61" x="1282.324219"/>
     <use xlink:href="#DejaVuSans-72" x="1343.603516"/>
     <use xlink:href="#DejaVuSans-67" x="1382.966797"/>
     <use xlink:href="#DejaVuSans-65" x="1446.443359"/>
    </g>
   </g>
  </g>
  <g id="axes_2">
   <g id="patch_7">
    <path d="M 331.88774 253.521635 
L 563.45601 253.521635 
L 563.45601 19.92024 
L 331.88774 19.92024 
z
" style="fill: #ffffff"/>
   </g>
   <g id="PathCollection_2">
    <g clip-path="url(#p9e238c0db0)">
     <use xlink:href="#m945a296e1c" x="428.591276" y="187.743646" style="fill: #1f77b4; stroke: #1f77b4"/>
     <use xlink:href="#m945a296e1c" x="473.472817" y="150.885352" style="fill: #1f77b4; stroke: #1f77b4"/>
     <use xlink:href="#m945a296e1c" x="403.684039" y="198.1474" style="fill: #1f77b4; stroke: #1f77b4"/>
     <use xlink:href="#m945a296e1c" x="491.08616" y="135.679613" style="fill: #1f77b4; stroke: #1f77b4"/>
     <use xlink:href="#m945a296e1c" x="475.16271" y="126.41183" style="fill: #1f77b4; stroke: #1f77b4"/>
     <use xlink:href="#m945a296e1c" x="443.784049" y="179.320918" style="fill: #1f77b4; stroke: #1f77b4"/>
     <use xlink:href="#m945a296e1c" x="428.239532" y="179.296688" style="fill: #1f77b4; stroke: #1f77b4"/>
     <use xlink:href="#m945a296e1c" x="474.200901" y="180.681018" style="fill: #1f77b4; stroke: #1f77b4"/>
     <use xlink:href="#m945a296e1c" x="407.723243" y="177.054824" style="fill: #1f77b4; stroke: #1f77b4"/>
     <use xlink:href="#m945a296e1c" x="526.255671" y="58.301636" style="fill: #1f77b4; stroke: #1f77b4"/>
     <use xlink:href="#m945a296e1c" x="513.124745" y="50.480762" style="fill: #1f77b4; stroke: #1f77b4"/>
     <use xlink:href="#m945a296e1c" x="489.224815" y="116.715626" style="fill: #1f77b4; stroke: #1f77b4"/>
     <use xlink:href="#m945a296e1c" x="385.360814" y="194.788105" style="fill: #1f77b4; stroke: #1f77b4"/>
     <use xlink:href="#m945a296e1c" x="435.091139" y="199.550195" style="fill: #1f77b4; stroke: #1f77b4"/>
     <use xlink:href="#m945a296e1c" x="418.552943" y="180.072709" style="fill: #1f77b4; stroke: #1f77b4"/>
     <use xlink:href="#m945a296e1c" x="448.962018" y="154.955913" style="fill: #1f77b4; stroke: #1f77b4"/>
     <use xlink:href="#m945a296e1c" x="389.432609" y="180.152197" style="fill: #1f77b4; stroke: #1f77b4"/>
     <use xlink:href="#m945a296e1c" x="387.21" y="165.247841" style="fill: #1f77b4; stroke: #1f77b4"/>
     <use xlink:href="#m945a296e1c" x="384.317978" y="214.020481" style="fill: #1f77b4; stroke: #1f77b4"/>
     <use xlink:href="#m945a296e1c" x="462.166656" y="149.547831" style="fill: #1f77b4; stroke: #1f77b4"/>
     <use xlink:href="#m945a296e1c" x="544.376792" y="157.305889" style="fill: #1f77b4; stroke: #1f77b4"/>
     <use xlink:href="#m945a296e1c" x="401.346096" y="177.440322" style="fill: #1f77b4; stroke: #1f77b4"/>
     <use xlink:href="#m945a296e1c" x="439.500979" y="140.861957" style="fill: #1f77b4; stroke: #1f77b4"/>
     <use xlink:href="#m945a296e1c" x="389.110952" y="215.070164" style="fill: #1f77b4; stroke: #1f77b4"/>
     <use xlink:href="#m945a296e1c" x="382.652431" y="197.65575" style="fill: #1f77b4; stroke: #1f77b4"/>
     <use xlink:href="#m945a296e1c" x="419.947975" y="192.490272" style="fill: #1f77b4; stroke: #1f77b4"/>
     <use xlink:href="#m945a296e1c" x="369.239592" y="181.170804" style="fill: #1f77b4; stroke: #1f77b4"/>
     <use xlink:href="#m945a296e1c" x="424.249318" y="180.642263" style="fill: #1f77b4; stroke: #1f77b4"/>
     <use xlink:href="#m945a296e1c" x="403.30086" y="170.578218" style="fill: #1f77b4; stroke: #1f77b4"/>
     <use xlink:href="#m945a296e1c" x="388.034798" y="196.437648" style="fill: #1f77b4; stroke: #1f77b4"/>
     <use xlink:href="#m945a296e1c" x="541.800466" y="4.735449" style="fill: #1f77b4; stroke: #1f77b4"/>
     <use xlink:href="#m945a296e1c" x="415.218406" y="203.546062" style="fill: #1f77b4; stroke: #1f77b4"/>
     <use xlink:href="#m945a296e1c" x="362.78647" y="212.887682" style="fill: #1f77b4; stroke: #1f77b4"/>
     <use xlink:href="#m945a296e1c" x="537.490256" y="104.957045" style="fill: #1f77b4; stroke: #1f77b4"/>
     <use xlink:href="#m945a296e1c" x="425.123776" y="191.802232" style="fill: #1f77b4; stroke: #1f77b4"/>
    </g>
   </g>
   <g id="PathCollection_3">
    <defs>
     <path id="mfb39565776" d="M 0 3 
C 0.795609 3 1.55874 2.683901 2.12132 2.12132 
C 2.683901 1.55874 3 0.795609 3 0 
C 3 -0.795609 2.683901 -1.55874 2.12132 -2.12132 
C 1.55874 -2.683901 0.795609 -3 0 -3 
C -0.795609 -3 -1.55874 -2.683901 -2.12132 -2.12132 
C -2.683901 -1.55874 -3 -0.795609 -3 0 
C -3 0.795609 -2.683901 1.55874 -2.12132 2.12132 
C -1.55874 2.683901 -0.795609 3 0 3 
z
" style="stroke: #000000"/>
    </defs>
    <g clip-path="url(#p9e238c0db0)">
     <use xlink:href="#mfb39565776" x="473.472817" y="150.885352" style="stroke: #000000"/>
     <use xlink:href="#mfb39565776" x="491.08616" y="135.679613" style="stroke: #000000"/>
     <use xlink:href="#mfb39565776" x="475.16271" y="126.41183" style="stroke: #000000"/>
     <use xlink:href="#mfb39565776" x="474.200901" y="180.681018" style="stroke: #000000"/>
     <use xlink:href="#mfb39565776" x="526.255671" y="58.301636" style="stroke: #000000"/>
     <use xlink:href="#mfb39565776" x="513.124745" y="50.480762" style="stroke: #000000"/>
     <use xlink:href="#mfb39565776" x="489.224815" y="116.715626" style="stroke: #000000"/>
     <use xlink:href="#mfb39565776" x="448.962018" y="154.955913" style="stroke: #000000"/>
     <use xlink:href="#mfb39565776" x="462.166656" y="149.547831" style="stroke: #000000"/>
     <use xlink:href="#mfb39565776" x="544.376792" y="157.305889" style="stroke: #000000"/>
     <use xlink:href="#mfb39565776" x="541.800466" y="4.735449" style="stroke: #000000"/>
     <use xlink:href="#mfb39565776" x="537.490256" y="104.957045" style="stroke: #000000"/>
    </g>
   </g>
   <g id="matplotlib.axis_3">
    <g id="xtick_6">
     <g id="line2d_29">
      <path d="M 331.88774 253.521635 
L 331.88774 19.92024 
" clip-path="url(#p9e238c0db0)" style="fill: none; stroke: #b0b0b0; stroke-width: 0.8; stroke-linecap: square"/>
     </g>
     <g id="line2d_30">
      <g>
       <use xlink:href="#meb726e007d" x="331.88774" y="253.521635" style="stroke: #000000; stroke-width: 0.8"/>
      </g>
     </g>
     <g id="text_18">
      <!-- 0 -->
      <g transform="translate(328.70649 268.120072) scale(0.1 -0.1)">
       <use xlink:href="#DejaVuSans-30"/>
      </g>
     </g>
    </g>
    <g id="xtick_7">
     <g id="line2d_31">
      <path d="M 389.779808 253.521635 
L 389.779808 19.92024 
" clip-path="url(#p9e238c0db0)" style="fill: none; stroke: #b0b0b0; stroke-width: 0.8; stroke-linecap: square"/>
     </g>
     <g id="line2d_32">
      <g>
       <use xlink:href="#meb726e007d" x="389.779808" y="253.521635" style="stroke: #000000; stroke-width: 0.8"/>
      </g>
     </g>
     <g id="text_19">
      <!-- 50 -->
      <g transform="translate(383.417307 268.120072) scale(0.1 -0.1)">
       <use xlink:href="#DejaVuSans-35"/>
       <use xlink:href="#DejaVuSans-30" x="63.623047"/>
      </g>
     </g>
    </g>
    <g id="xtick_8">
     <g id="line2d_33">
      <path d="M 447.671875 253.521635 
L 447.671875 19.92024 
" clip-path="url(#p9e238c0db0)" style="fill: none; stroke: #b0b0b0; stroke-width: 0.8; stroke-linecap: square"/>
     </g>
     <g id="line2d_34">
      <g>
       <use xlink:href="#meb726e007d" x="447.671875" y="253.521635" style="stroke: #000000; stroke-width: 0.8"/>
      </g>
     </g>
     <g id="text_20">
      <!-- 100 -->
      <g transform="translate(438.128125 268.120072) scale(0.1 -0.1)">
       <use xlink:href="#DejaVuSans-31"/>
       <use xlink:href="#DejaVuSans-30" x="63.623047"/>
       <use xlink:href="#DejaVuSans-30" x="127.246094"/>
      </g>
     </g>
    </g>
    <g id="xtick_9">
     <g id="line2d_35">
      <path d="M 505.563942 253.521635 
L 505.563942 19.92024 
" clip-path="url(#p9e238c0db0)" style="fill: none; stroke: #b0b0b0; stroke-width: 0.8; stroke-linecap: square"/>
     </g>
     <g id="line2d_36">
      <g>
       <use xlink:href="#meb726e007d" x="505.563942" y="253.521635" style="stroke: #000000; stroke-width: 0.8"/>
      </g>
     </g>
     <g id="text_21">
      <!-- 150 -->
      <g transform="translate(496.020193 268.120072) scale(0.1 -0.1)">
       <use xlink:href="#DejaVuSans-31"/>
       <use xlink:href="#DejaVuSans-35" x="63.623047"/>
       <use xlink:href="#DejaVuSans-30" x="127.246094"/>
      </g>
     </g>
    </g>
    <g id="xtick_10">
     <g id="line2d_37">
      <path d="M 563.45601 253.521635 
L 563.45601 19.92024 
" clip-path="url(#p9e238c0db0)" style="fill: none; stroke: #b0b0b0; stroke-width: 0.8; stroke-linecap: square"/>
     </g>
     <g id="line2d_38">
      <g>
       <use xlink:href="#meb726e007d" x="563.45601" y="253.521635" style="stroke: #000000; stroke-width: 0.8"/>
      </g>
     </g>
     <g id="text_22">
      <!-- 200 -->
      <g transform="translate(553.91226 268.120072) scale(0.1 -0.1)">
       <use xlink:href="#DejaVuSans-32"/>
       <use xlink:href="#DejaVuSans-30" x="63.623047"/>
       <use xlink:href="#DejaVuSans-30" x="127.246094"/>
      </g>
     </g>
    </g>
    <g id="text_23">
     <!-- ${Q_1 (m^3/s)}$ -->
     <g transform="translate(425.671875 282.920073) scale(0.1 -0.1)">
      <use xlink:href="#DejaVuSans-Oblique-51" transform="translate(0 0.765625)"/>
      <use xlink:href="#DejaVuSans-31" transform="translate(78.710938 -15.640625) scale(0.7)"/>
      <use xlink:href="#DejaVuSans-28" transform="translate(125.981445 0.765625)"/>
      <use xlink:href="#DejaVuSans-Oblique-6d" transform="translate(164.995117 0.765625)"/>
      <use xlink:href="#DejaVuSans-33" transform="translate(267.057122 39.046875) scale(0.7)"/>
      <use xlink:href="#DejaVuSans-2f" transform="translate(314.32763 0.765625)"/>
      <use xlink:href="#DejaVuSans-Oblique-73" transform="translate(348.019036 0.765625)"/>
      <use xlink:href="#DejaVuSans-29" transform="translate(400.118646 0.765625)"/>
     </g>
    </g>
   </g>
   <g id="matplotlib.axis_4">
    <g id="ytick_10">
     <g id="line2d_39">
      <path d="M 331.88774 253.521635 
L 563.45601 253.521635 
" clip-path="url(#p9e238c0db0)" style="fill: none; stroke: #b0b0b0; stroke-width: 0.8; stroke-linecap: square"/>
     </g>
     <g id="line2d_40">
      <g>
       <use xlink:href="#mf2223920f0" x="331.88774" y="253.521635" style="stroke: #000000; stroke-width: 0.8"/>
      </g>
     </g>
     <g id="text_24">
      <!-- 0 -->
      <g transform="translate(318.52524 257.320854) scale(0.1 -0.1)">
       <use xlink:href="#DejaVuSans-30"/>
      </g>
     </g>
    </g>
    <g id="ytick_11">
     <g id="line2d_41">
      <path d="M 331.88774 224.321461 
L 563.45601 224.321461 
" clip-path="url(#p9e238c0db0)" style="fill: none; stroke: #b0b0b0; stroke-width: 0.8; stroke-linecap: square"/>
     </g>
     <g id="line2d_42">
      <g>
       <use xlink:href="#mf2223920f0" x="331.88774" y="224.321461" style="stroke: #000000; stroke-width: 0.8"/>
      </g>
     </g>
     <g id="text_25">
      <!-- 25 -->
      <g transform="translate(312.16274 228.120679) scale(0.1 -0.1)">
       <use xlink:href="#DejaVuSans-32"/>
       <use xlink:href="#DejaVuSans-35" x="63.623047"/>
      </g>
     </g>
    </g>
    <g id="ytick_12">
     <g id="line2d_43">
      <path d="M 331.88774 195.121286 
L 563.45601 195.121286 
" clip-path="url(#p9e238c0db0)" style="fill: none; stroke: #b0b0b0; stroke-width: 0.8; stroke-linecap: square"/>
     </g>
     <g id="line2d_44">
      <g>
       <use xlink:href="#mf2223920f0" x="331.88774" y="195.121286" style="stroke: #000000; stroke-width: 0.8"/>
      </g>
     </g>
     <g id="text_26">
      <!-- 50 -->
      <g transform="translate(312.16274 198.920505) scale(0.1 -0.1)">
       <use xlink:href="#DejaVuSans-35"/>
       <use xlink:href="#DejaVuSans-30" x="63.623047"/>
      </g>
     </g>
    </g>
    <g id="ytick_13">
     <g id="line2d_45">
      <path d="M 331.88774 165.921112 
L 563.45601 165.921112 
" clip-path="url(#p9e238c0db0)" style="fill: none; stroke: #b0b0b0; stroke-width: 0.8; stroke-linecap: square"/>
     </g>
     <g id="line2d_46">
      <g>
       <use xlink:href="#mf2223920f0" x="331.88774" y="165.921112" style="stroke: #000000; stroke-width: 0.8"/>
      </g>
     </g>
     <g id="text_27">
      <!-- 75 -->
      <g transform="translate(312.16274 169.720331) scale(0.1 -0.1)">
       <use xlink:href="#DejaVuSans-37"/>
       <use xlink:href="#DejaVuSans-35" x="63.623047"/>
      </g>
     </g>
    </g>
    <g id="ytick_14">
     <g id="line2d_47">
      <path d="M 331.88774 136.720937 
L 563.45601 136.720937 
" clip-path="url(#p9e238c0db0)" style="fill: none; stroke: #b0b0b0; stroke-width: 0.8; stroke-linecap: square"/>
     </g>
     <g id="line2d_48">
      <g>
       <use xlink:href="#mf2223920f0" x="331.88774" y="136.720937" style="stroke: #000000; stroke-width: 0.8"/>
      </g>
     </g>
     <g id="text_28">
      <!-- 100 -->
      <g transform="translate(305.80024 140.520156) scale(0.1 -0.1)">
       <use xlink:href="#DejaVuSans-31"/>
       <use xlink:href="#DejaVuSans-30" x="63.623047"/>
       <use xlink:href="#DejaVuSans-30" x="127.246094"/>
      </g>
     </g>
    </g>
    <g id="ytick_15">
     <g id="line2d_49">
      <path d="M 331.88774 107.520763 
L 563.45601 107.520763 
" clip-path="url(#p9e238c0db0)" style="fill: none; stroke: #b0b0b0; stroke-width: 0.8; stroke-linecap: square"/>
     </g>
     <g id="line2d_50">
      <g>
       <use xlink:href="#mf2223920f0" x="331.88774" y="107.520763" style="stroke: #000000; stroke-width: 0.8"/>
      </g>
     </g>
     <g id="text_29">
      <!-- 125 -->
      <g transform="translate(305.80024 111.319982) scale(0.1 -0.1)">
       <use xlink:href="#DejaVuSans-31"/>
       <use xlink:href="#DejaVuSans-32" x="63.623047"/>
       <use xlink:href="#DejaVuSans-35" x="127.246094"/>
      </g>
     </g>
    </g>
    <g id="ytick_16">
     <g id="line2d_51">
      <path d="M 331.88774 78.320589 
L 563.45601 78.320589 
" clip-path="url(#p9e238c0db0)" style="fill: none; stroke: #b0b0b0; stroke-width: 0.8; stroke-linecap: square"/>
     </g>
     <g id="line2d_52">
      <g>
       <use xlink:href="#mf2223920f0" x="331.88774" y="78.320589" style="stroke: #000000; stroke-width: 0.8"/>
      </g>
     </g>
     <g id="text_30">
      <!-- 150 -->
      <g transform="translate(305.80024 82.119807) scale(0.1 -0.1)">
       <use xlink:href="#DejaVuSans-31"/>
       <use xlink:href="#DejaVuSans-35" x="63.623047"/>
       <use xlink:href="#DejaVuSans-30" x="127.246094"/>
      </g>
     </g>
    </g>
    <g id="ytick_17">
     <g id="line2d_53">
      <path d="M 331.88774 49.120414 
L 563.45601 49.120414 
" clip-path="url(#p9e238c0db0)" style="fill: none; stroke: #b0b0b0; stroke-width: 0.8; stroke-linecap: square"/>
     </g>
     <g id="line2d_54">
      <g>
       <use xlink:href="#mf2223920f0" x="331.88774" y="49.120414" style="stroke: #000000; stroke-width: 0.8"/>
      </g>
     </g>
     <g id="text_31">
      <!-- 175 -->
      <g transform="translate(305.80024 52.919633) scale(0.1 -0.1)">
       <use xlink:href="#DejaVuSans-31"/>
       <use xlink:href="#DejaVuSans-37" x="63.623047"/>
       <use xlink:href="#DejaVuSans-35" x="127.246094"/>
      </g>
     </g>
    </g>
    <g id="ytick_18">
     <g id="line2d_55">
      <path d="M 331.88774 19.92024 
L 563.45601 19.92024 
" clip-path="url(#p9e238c0db0)" style="fill: none; stroke: #b0b0b0; stroke-width: 0.8; stroke-linecap: square"/>
     </g>
     <g id="line2d_56">
      <g>
       <use xlink:href="#mf2223920f0" x="331.88774" y="19.92024" style="stroke: #000000; stroke-width: 0.8"/>
      </g>
     </g>
     <g id="text_32">
      <!-- 200 -->
      <g transform="translate(305.80024 23.719459) scale(0.1 -0.1)">
       <use xlink:href="#DejaVuSans-32"/>
       <use xlink:href="#DejaVuSans-30" x="63.623047"/>
       <use xlink:href="#DejaVuSans-30" x="127.246094"/>
      </g>
     </g>
    </g>
    <g id="text_33">
     <!-- ${Q_2 (m^3/s)}$ -->
     <g transform="translate(299.720553 158.720937) rotate(-90) scale(0.1 -0.1)">
      <use xlink:href="#DejaVuSans-Oblique-51" transform="translate(0 0.765625)"/>
      <use xlink:href="#DejaVuSans-32" transform="translate(78.710938 -15.640625) scale(0.7)"/>
      <use xlink:href="#DejaVuSans-28" transform="translate(125.981445 0.765625)"/>
      <use xlink:href="#DejaVuSans-Oblique-6d" transform="translate(164.995117 0.765625)"/>
      <use xlink:href="#DejaVuSans-33" transform="translate(267.057122 39.046875) scale(0.7)"/>
      <use xlink:href="#DejaVuSans-2f" transform="translate(314.32763 0.765625)"/>
      <use xlink:href="#DejaVuSans-Oblique-73" transform="translate(348.019036 0.765625)"/>
      <use xlink:href="#DejaVuSans-29" transform="translate(400.118646 0.765625)"/>
     </g>
    </g>
   </g>
   <g id="line2d_57">
    <path d="M 447.671875 253.521635 
L 447.671875 19.92024 
" clip-path="url(#p9e238c0db0)" style="fill: none; stroke-dasharray: 7.4,3.2; stroke-dashoffset: 0; stroke: #000000; stroke-width: 2"/>
   </g>
   <g id="patch_8">
    <path d="M 331.88774 253.521635 
L 331.88774 19.92024 
" style="fill: none; stroke: #000000; stroke-width: 0.8; stroke-linejoin: miter; stroke-linecap: square"/>
   </g>
   <g id="patch_9">
    <path d="M 563.45601 253.521635 
L 563.45601 19.92024 
" style="fill: none; stroke: #000000; stroke-width: 0.8; stroke-linejoin: miter; stroke-linecap: square"/>
   </g>
   <g id="patch_10">
    <path d="M 331.88774 253.521635 
L 563.45601 253.521635 
" style="fill: none; stroke: #000000; stroke-width: 0.8; stroke-linejoin: miter; stroke-linecap: square"/>
   </g>
   <g id="patch_11">
    <path d="M 331.88774 19.92024 
L 563.45601 19.92024 
" style="fill: none; stroke: #000000; stroke-width: 0.8; stroke-linejoin: miter; stroke-linecap: square"/>
   </g>
   <g id="text_34">
    <!-- (b) Samples of discharge where ${q_1 &gt; 100 m^3/s}$ -->
    <g transform="translate(310.751875 13.92024) scale(0.12 -0.12)">
     <defs>
      <path id="DejaVuSans-62" d="M 3116 1747 
Q 3116 2381 2855 2742 
Q 2594 3103 2138 3103 
Q 1681 3103 1420 2742 
Q 1159 2381 1159 1747 
Q 1159 1113 1420 752 
Q 1681 391 2138 391 
Q 2594 391 2855 752 
Q 3116 1113 3116 1747 
z
M 1159 2969 
Q 1341 3281 1617 3432 
Q 1894 3584 2278 3584 
Q 2916 3584 3314 3078 
Q 3713 2572 3713 1747 
Q 3713 922 3314 415 
Q 2916 -91 2278 -91 
Q 1894 -91 1617 61 
Q 1341 213 1159 525 
L 1159 0 
L 581 0 
L 581 4863 
L 1159 4863 
L 1159 2969 
z
" transform="scale(0.015625)"/>
      <path id="DejaVuSans-77" d="M 269 3500 
L 844 3500 
L 1563 769 
L 2278 3500 
L 2956 3500 
L 3675 769 
L 4391 3500 
L 4966 3500 
L 4050 0 
L 3372 0 
L 2619 2869 
L 1863 0 
L 1184 0 
L 269 3500 
z
" transform="scale(0.015625)"/>
      <path id="DejaVuSans-Oblique-71" d="M 2669 525 
Q 2438 222 2123 65 
Q 1809 -91 1428 -91 
Q 897 -91 595 267 
Q 294 625 294 1253 
Q 294 1759 480 2231 
Q 666 2703 1013 3078 
Q 1238 3322 1530 3453 
Q 1822 3584 2144 3584 
Q 2531 3584 2781 3431 
Q 3031 3278 3144 2969 
L 3244 3494 
L 3822 3494 
L 2888 -1319 
L 2309 -1319 
L 2669 525 
z
M 891 1338 
Q 891 875 1084 633 
Q 1278 391 1644 391 
Q 2188 391 2572 911 
Q 2956 1431 2956 2175 
Q 2956 2625 2757 2864 
Q 2559 3103 2188 3103 
Q 1916 3103 1684 2976 
Q 1453 2850 1281 2606 
Q 1100 2350 995 2006 
Q 891 1663 891 1338 
z
" transform="scale(0.015625)"/>
      <path id="DejaVuSans-3e" d="M 678 3150 
L 678 3719 
L 4684 2266 
L 4684 1747 
L 678 294 
L 678 863 
L 3897 2003 
L 678 3150 
z
" transform="scale(0.015625)"/>
     </defs>
     <use xlink:href="#DejaVuSans-28" transform="translate(0 0.765625)"/>
     <use xlink:href="#DejaVuSans-62" transform="translate(39.013672 0.765625)"/>
     <use xlink:href="#DejaVuSans-29" transform="translate(102.490234 0.765625)"/>
     <use xlink:href="#DejaVuSans-20" transform="translate(141.503906 0.765625)"/>
     <use xlink:href="#DejaVuSans-53" transform="translate(173.291016 0.765625)"/>
     <use xlink:href="#DejaVuSans-61" transform="translate(236.767578 0.765625)"/>
     <use xlink:href="#DejaVuSans-6d" transform="translate(298.046875 0.765625)"/>
     <use xlink:href="#DejaVuSans-70" transform="translate(395.458984 0.765625)"/>
     <use xlink:href="#DejaVuSans-6c" transform="translate(458.935547 0.765625)"/>
     <use xlink:href="#DejaVuSans-65" transform="translate(486.71875 0.765625)"/>
     <use xlink:href="#DejaVuSans-73" transform="translate(548.242188 0.765625)"/>
     <use xlink:href="#DejaVuSans-20" transform="translate(600.341797 0.765625)"/>
     <use xlink:href="#DejaVuSans-6f" transform="translate(632.128906 0.765625)"/>
     <use xlink:href="#DejaVuSans-66" transform="translate(693.310547 0.765625)"/>
     <use xlink:href="#DejaVuSans-20" transform="translate(728.515625 0.765625)"/>
     <use xlink:href="#DejaVuSans-64" transform="translate(760.302734 0.765625)"/>
     <use xlink:href="#DejaVuSans-69" transform="translate(823.779297 0.765625)"/>
     <use xlink:href="#DejaVuSans-73" transform="translate(851.5625 0.765625)"/>
     <use xlink:href="#DejaVuSans-63" transform="translate(903.662109 0.765625)"/>
     <use xlink:href="#DejaVuSans-68" transform="translate(958.642578 0.765625)"/>
     <use xlink:href="#DejaVuSans-61" transform="translate(1022.021484 0.765625)"/>
     <use xlink:href="#DejaVuSans-72" transform="translate(1083.300781 0.765625)"/>
     <use xlink:href="#DejaVuSans-67" transform="translate(1124.414062 0.765625)"/>
     <use xlink:href="#DejaVuSans-65" transform="translate(1187.890625 0.765625)"/>
     <use xlink:href="#DejaVuSans-20" transform="translate(1249.414062 0.765625)"/>
     <use xlink:href="#DejaVuSans-77" transform="translate(1281.201172 0.765625)"/>
     <use xlink:href="#DejaVuSans-68" transform="translate(1362.988281 0.765625)"/>
     <use xlink:href="#DejaVuSans-65" transform="translate(1426.367188 0.765625)"/>
     <use xlink:href="#DejaVuSans-72" transform="translate(1487.890625 0.765625)"/>
     <use xlink:href="#DejaVuSans-65" transform="translate(1529.003906 0.765625)"/>
     <use xlink:href="#DejaVuSans-20" transform="translate(1590.527344 0.765625)"/>
     <use xlink:href="#DejaVuSans-Oblique-71" transform="translate(1622.314453 0.765625)"/>
     <use xlink:href="#DejaVuSans-31" transform="translate(1685.791016 -15.640625) scale(0.7)"/>
     <use xlink:href="#DejaVuSans-3e" transform="translate(1752.543945 0.765625)"/>
     <use xlink:href="#DejaVuSans-31" transform="translate(1855.81543 0.765625)"/>
     <use xlink:href="#DejaVuSans-30" transform="translate(1919.438477 0.765625)"/>
     <use xlink:href="#DejaVuSans-30" transform="translate(1983.061523 0.765625)"/>
     <use xlink:href="#DejaVuSans-Oblique-6d" transform="translate(2046.68457 0.765625)"/>
     <use xlink:href="#DejaVuSans-33" transform="translate(2148.746576 39.046875) scale(0.7)"/>
     <use xlink:href="#DejaVuSans-2f" transform="translate(2196.017083 0.765625)"/>
     <use xlink:href="#DejaVuSans-Oblique-73" transform="translate(2229.70849 0.765625)"/>
    </g>
   </g>
  </g>
 </g>
 <defs>
  <clipPath id="pa0d3a43f97">
   <rect x="43.88774" y="19.92024" width="231.56827" height="233.601395"/>
  </clipPath>
  <clipPath id="p9e238c0db0">
   <rect x="331.88774" y="19.92024" width="231.56827" height="233.601395"/>
  </clipPath>
 </defs>
</svg>
